<svg width="12" height="23" viewBox="0 0 12 23" fill="none" xmlns="http://www.w3.org/2000/svg">
<path d="M2.22267 13.0018C2.81172 13.3532 2.50687 14.3285 3.13714 14.8365C3.76741 15.3445 4.19404 15.1186 4.73239 15.8672C5.27073 16.6157 6.12394 17.0787 6.25614 17.5098C6.38828 17.9408 6.8472 17.5818 7.14132 18.0972C7.43543 18.6125 7.72767 18.8212 8.20816 19.069C8.68867 19.3167 9.85482 20.3598 10.0638 20.9346C10.2728 21.5093 11.0048 21.7161 11.3366 21.9391C11.4399 22.0085 11.534 22.0516 11.6144 22.077C11.6485 22.0878 11.6859 22.0731 11.7134 22.0482C11.7134 22.0482 11.7134 22.0482 11.7134 22.0481C11.7476 22.0171 11.7663 21.9702 11.7439 21.9369C11.6351 21.7752 11.4966 21.5117 11.3915 21.1472C11.1956 20.4676 10.8937 20.6484 10.4359 19.9063C9.97809 19.1643 9.86904 18.5676 9.03728 17.961C8.20554 17.3544 8.69187 16.5992 7.37047 15.8768C6.04911 15.1545 6.61989 14.4331 5.75504 13.3024C4.89018 12.1716 3.31521 11.1836 2.77075 10.523C2.70495 10.4432 2.63695 10.3595 2.56666 10.2727L2.56668 11.8333C3.14663 11.2644 3.88135 10.5587 4.52025 9.69935C5.24699 8.72185 6.47726 7.818 7.21916 6.68418C7.96106 5.55038 9.03378 3.96909 9.4878 3.20077C9.9418 2.43248 10.0549 2.24743 10.7025 1.69935C11.0747 1.38431 11.4785 0.851167 11.684 0.277706C11.7875 -0.0108991 11.6232 -0.0735444 11.3735 0.0846479C11.0085 0.315981 10.8349 0.620598 10.5391 0.64187C9.94792 0.684327 9.70918 0.713759 9.5209 1.27467C9.33262 1.83555 8.76077 1.66063 8.59443 1.93614C8.4281 2.21169 8.66763 2.42242 7.40577 3.44513C6.14389 4.46786 5.50542 5.07696 5.05277 5.48718C4.60011 5.8974 3.95096 7.02306 3.21047 7.68907C2.5536 8.27987 1.46645 9.56802 0.763477 10.1941L-5.84046e-06 10.8807L0.7635 11.912C0.834343 12.0087 0.895094 12.0981 0.943119 12.1784C1.36833 12.8893 1.63365 12.6504 2.22267 13.0018Z" fill="url(#paint0_radial_50_299)"/>
<defs>
<radialGradient id="paint0_radial_50_299" cx="0" cy="0" r="1" gradientUnits="userSpaceOnUse" gradientTransform="translate(6.70836 11.0527) rotate(90) scale(11 5)">
<stop stop-color="#EBD4A9"/>
<stop offset="1" stop-color="#E69900"/>
</radialGradient>
</defs>
</svg>
