<svg width="12" height="23" viewBox="0 0 12 23" fill="none" xmlns="http://www.w3.org/2000/svg">
<path d="M9.53094 13.0018C8.94189 13.3532 9.24674 14.3285 8.61647 14.8365C7.98621 15.3445 7.55958 15.1186 7.02122 15.8672C6.48289 16.6157 5.62967 17.0787 5.49748 17.5098C5.36533 17.9408 4.90641 17.5818 4.6123 18.0972C4.31819 18.6125 4.02594 18.8212 3.54546 19.069C3.06494 19.3167 1.8988 20.3598 1.68982 20.9346C1.48084 21.5093 0.748784 21.7161 0.417029 21.9391C0.313693 22.0085 0.219571 22.0516 0.139167 22.077C0.105095 22.0878 0.0676972 22.0731 0.0402552 22.0482C0.0402374 22.0482 0.0402196 22.0482 0.0402017 22.0481C0.00604977 22.0171 -0.012652 21.9702 0.00974886 21.9369C0.118477 21.7752 0.257015 21.5117 0.3621 21.1472C0.558025 20.4676 0.859937 20.6484 1.31773 19.9063C1.77552 19.1643 1.88458 18.5676 2.71634 17.961C3.54808 17.3544 3.06175 16.5992 4.38315 15.8768C5.70451 15.1545 5.13372 14.4331 5.99857 13.3024C6.86344 12.1716 8.43841 11.1836 8.98286 10.523C9.04867 10.4432 9.11667 10.3595 9.18696 10.2727L9.18693 11.8333C8.60698 11.2644 7.87226 10.5587 7.23337 9.69935C6.50662 8.72185 5.27635 7.818 4.53445 6.68418C3.79256 5.55038 2.71984 3.96909 2.26582 3.20077C1.81182 2.43248 1.69872 2.24743 1.05113 1.69935C0.678889 1.38431 0.275151 0.851167 0.0695693 0.277706C-0.0338906 -0.0108991 0.130405 -0.0735444 0.380072 0.0846479C0.745162 0.315981 0.918669 0.620598 1.2145 0.64187C1.8057 0.684327 2.04444 0.713759 2.23271 1.27467C2.42099 1.83555 2.99285 1.66063 3.15919 1.93614C3.32552 2.21169 3.08599 2.42242 4.34784 3.44513C5.60972 4.46786 6.24819 5.07696 6.70085 5.48718C7.1535 5.8974 7.80265 7.02306 8.54315 7.68907C9.20002 8.27987 10.2872 9.56802 10.9901 10.1941L11.7536 10.8807L10.9901 11.912C10.9193 12.0087 10.8585 12.0981 10.8105 12.1784C10.3853 12.8893 10.12 12.6504 9.53094 13.0018Z" fill="url(#paint0_radial_50_298)"/>
<defs>
<radialGradient id="paint0_radial_50_298" cx="0" cy="0" r="1" gradientUnits="userSpaceOnUse" gradientTransform="translate(5.04526 11.0527) rotate(90) scale(11 5)">
<stop stop-color="#EBD4A9"/>
<stop offset="1" stop-color="#E69900"/>
</radialGradient>
</defs>
</svg>
