<svg width="188" height="201" viewBox="0 0 188 201" fill="none" xmlns="http://www.w3.org/2000/svg">
<path d="M43.8394 19.034C44.8394 19.2007 47.1394 18.434 48.3394 14.034C49.5394 9.63402 54.8394 7.86735 57.3394 7.53401C58.5394 7.93401 61.1727 6.36702 62.3394 5.53369C63.3394 5.36702 65.7394 5.13369 67.3394 5.53369C68.9394 5.93369 71.3394 5.03369 72.3394 4.53369C75.1727 2.86702 81.4394 -0.266309 83.8394 0.533691C86.2394 1.33369 90.506 0.533765 92.3394 0.0338021C92.8394 -0.132865 94.5394 0.233802 97.3394 3.0338C100.139 5.8338 104.506 5.20052 106.339 4.53388C107.673 4.36721 111.239 4.33388 114.839 5.53388C118.439 6.73388 121.673 7.03397 122.839 7.03401C128.839 5.83401 130.339 7.53401 130.339 8.53401C131.006 10.2007 132.939 13.634 135.339 14.034C137.739 14.434 140.006 16.534 140.839 17.534C142.006 18.034 144.939 19.034 147.339 19.034C149.739 19.034 151.673 18.7007 152.339 18.534C153.839 18.8673 157.039 20.034 157.839 22.034C158.639 24.034 159.839 26.8673 160.339 28.034C162.339 32.034 160.173 36.034 158.839 37.534C158.506 38.7007 158.339 41.134 160.339 41.534C162.839 42.034 165.839 45.034 167.839 47.034C169.439 48.634 170.839 51.3673 171.339 52.534C172.339 53.7007 174.839 56.334 176.839 57.534C178.839 58.734 179.006 60.3673 178.839 61.034C179.339 62.034 180.739 65.034 182.339 69.034C183.939 73.034 183.339 75.3673 182.839 76.034C178.839 80.834 178.506 85.034 178.839 86.534C179.006 87.2007 179.739 89.334 181.339 92.534C182.939 95.734 184.006 101.201 184.339 103.534C184.339 103.867 184.839 105.334 186.839 108.534C188.839 111.734 187.673 113.534 186.839 114.034C186.173 114.534 184.639 115.734 183.839 116.534C183.039 117.334 180.839 119.867 179.839 121.034C176.639 123.834 177.506 125.867 178.339 126.534C178.839 127.034 179.939 128.334 180.339 129.534C180.739 130.734 178.173 131.367 176.839 131.534C172.039 138.734 172.506 144.867 173.339 147.034C174.506 148.367 176.039 151.534 172.839 153.534C169.639 155.534 164.839 160.701 162.839 163.034C161.339 164.534 157.339 167.834 153.339 169.034C149.339 170.234 148.673 172.867 148.839 174.034C148.506 177.867 147.039 185.734 143.839 186.534C140.639 187.334 133.839 190.201 130.839 191.534C129.173 192.534 124.839 194.234 120.839 193.034C116.839 191.834 116.173 192.534 116.339 193.034C115.939 195.434 112.839 196.367 111.339 196.534C111.006 196.534 109.439 196.734 105.839 197.534C102.239 198.334 96.3394 197.534 93.8394 197.034C93.006 196.367 90.2394 195.734 85.8394 198.534C81.4394 201.334 78.6727 200.367 77.8394 199.534C76.8394 198.701 74.1394 197.334 71.3394 198.534C67.8394 200.034 65.3394 198.034 63.8394 197.534C62.6394 197.134 61.006 194.034 60.3394 192.534C59.1394 191.734 58.1727 189.201 57.8394 188.034C57.506 186.201 56.6394 183.134 55.8394 185.534C55.0394 187.934 54.1727 188.201 53.8394 188.034C52.2394 187.634 48.8394 188.201 47.3394 188.534C42.1394 188.934 38.506 185.701 37.3394 184.034C36.006 182.201 32.8394 178.034 30.8394 176.034C28.8394 174.034 29.006 170.867 29.3394 169.534C28.1727 168.201 25.3394 166.034 23.3394 168.034C21.3394 170.034 19.8394 169.867 19.3394 169.534C15.3394 167.534 15.6727 165.701 16.3394 165.034C16.6727 164.367 16.6394 162.634 13.8394 161.034C11.0394 159.434 11.006 156.367 11.3394 155.034C11.3394 153.367 11.1394 149.534 10.3394 147.534C9.53936 145.534 9.67269 144.701 9.83936 144.534C10.006 144.367 10.3394 143.634 10.3394 142.034C10.3394 140.434 9.33936 138.367 8.83936 137.534C8.33936 137.034 7.33936 135.534 7.33936 133.534C7.33936 131.534 5.33936 128.367 4.33936 127.034C3.17269 125.867 0.739355 123.334 0.339355 122.534C-0.0606441 121.734 0.506022 119.534 0.839355 118.534V115.034C0.839355 113.434 1.17269 110.701 1.33936 109.534C1.33937 109.034 1.13939 107.634 0.339388 106.034C-0.460612 104.434 0.339388 103.367 0.839388 103.034C1.17272 102.867 2.23939 102.134 3.83939 100.534C5.43939 98.934 6.17272 96.8673 6.33939 96.034C6.50605 95.034 6.93939 92.834 7.33939 92.034C7.73939 91.234 7.50605 90.7007 7.33939 90.534C6.83939 89.534 5.83939 87.334 5.83939 86.534C5.83939 85.734 5.50607 82.8673 5.33941 81.534C3.73941 79.134 3.67274 76.534 3.83941 75.534C4.33942 74.034 5.23945 70.934 4.83945 70.534C4.43945 70.134 4.67278 68.3673 4.83945 67.534C5.23945 65.534 8.00611 62.7007 9.33945 61.534C10.8394 58.8673 14.1394 53.534 15.3394 53.534C16.5394 53.534 18.1728 51.8673 18.8394 51.034C22.8394 46.634 22.1728 44.534 21.3394 44.034C16.9394 39.634 13.5061 35.8673 12.3394 34.534C12.3394 33.3673 12.6394 31.034 13.8394 31.034C15.0394 31.034 17.6728 29.7007 18.8394 29.034C21.2394 27.034 24.5061 25.534 25.8394 25.034C25.6728 25.2007 26.8394 24.734 32.8394 21.534C38.8394 18.334 42.6727 18.534 43.8394 19.034Z" fill="#380F40"/>
</svg>
