<svg width="145" height="155" viewBox="0 0 145 155" fill="none" xmlns="http://www.w3.org/2000/svg">
<path d="M33.8225 14.7222C34.594 14.8511 36.3684 14.2581 37.2943 10.8548C38.2201 7.4516 42.3091 6.08514 44.2378 5.82731C45.1636 6.13669 47.1953 4.92468 48.0954 4.28013C48.8669 4.15121 50.7185 3.97074 51.9529 4.28013C53.1873 4.58951 55.0389 3.89339 55.8105 3.50666C57.9964 2.21755 62.8312 -0.205981 64.6828 0.412792C66.5344 1.03157 69.8261 0.41285 71.2406 0.0261448C71.6264 -0.102767 72.9379 0.180838 75.0982 2.34654C77.2581 4.51225 80.6273 4.02243 82.0414 3.50681C83.0706 3.37789 85.8218 3.35211 88.5993 4.28027C91.3767 5.20843 93.8717 5.44054 94.7713 5.44057C99.4004 4.51241 100.558 5.82731 100.558 6.60078C101.072 7.8899 102.564 10.5454 104.415 10.8548C106.267 11.1642 108.016 12.7885 108.658 13.562C109.559 13.9487 111.822 14.7222 113.673 14.7222C115.525 14.7222 117.017 14.4644 117.531 14.3354C118.688 14.5932 121.157 15.4956 121.774 17.0426C122.391 18.5895 123.317 20.781 123.703 21.6834C125.246 24.7772 123.575 27.8711 122.546 29.0313C122.289 29.9337 122.16 31.8158 123.703 32.1252C125.632 32.5119 127.946 34.8323 129.489 36.3792C130.724 37.6168 131.804 39.7309 132.189 40.6333C132.961 41.5357 134.89 43.5725 136.433 44.5007C137.976 45.4288 138.105 46.6921 137.976 47.2078C138.362 47.9813 139.442 50.3017 140.676 53.3955C141.91 56.4894 141.448 58.2941 141.062 58.8098C137.976 62.5224 137.719 65.771 137.976 66.9312C138.105 67.4469 138.67 69.0969 139.905 71.572C141.139 74.0471 141.962 78.2756 142.219 80.0801C142.219 80.3377 142.605 81.4724 144.148 83.9475C145.691 86.4226 144.791 87.8148 144.148 88.2015C143.634 88.5883 142.451 89.5164 141.833 90.1352C141.216 90.754 139.519 92.7132 138.747 93.6158C136.278 95.7815 136.947 97.354 137.59 97.8699C137.976 98.2566 138.824 99.2621 139.133 100.19C139.442 101.118 137.462 101.608 136.433 101.737C132.73 107.306 133.09 112.05 133.732 113.726C134.633 114.757 135.816 117.207 133.347 118.753C130.878 120.3 127.175 124.297 125.632 126.101C124.474 127.262 121.388 129.814 118.302 130.742C115.216 131.67 114.702 133.707 114.831 134.61C114.574 137.574 113.442 143.659 110.973 144.278C108.504 144.897 103.258 147.114 100.943 148.145C99.6581 148.919 96.3143 150.234 93.2283 149.305C90.1423 148.377 89.6284 148.919 89.7565 149.305C89.4479 151.162 87.0562 151.883 85.899 152.013C85.6421 152.013 84.4331 152.167 81.6557 152.786C78.8782 153.405 74.3267 152.786 72.3979 152.399C71.7549 151.883 69.6205 151.394 66.2258 153.559C62.8312 155.725 60.6966 154.977 60.0538 154.333C59.2822 153.689 57.1992 152.631 55.0389 153.559C52.3387 154.72 50.4099 153.173 49.2526 152.786C48.3268 152.477 47.0666 150.079 46.5524 148.919C45.6265 148.3 44.8807 146.341 44.6236 145.438C44.3664 144.02 43.6978 141.648 43.0806 143.504C42.4634 145.361 41.7947 145.567 41.5376 145.438C40.3031 145.129 37.68 145.567 36.5227 145.825C32.5109 146.134 29.7077 143.634 28.8077 142.344C27.7789 140.926 25.3359 137.703 23.7929 136.156C22.2498 134.61 22.3784 132.16 22.6356 131.129C21.7355 130.098 19.5496 128.422 18.0065 129.969C16.4635 131.516 15.3063 131.387 14.9205 131.129C11.8345 129.582 12.0916 128.164 12.606 127.648C12.8631 127.132 12.8374 125.792 10.6772 124.554C8.51699 123.317 8.49122 120.945 8.74844 119.914C8.74844 118.624 8.59414 115.66 7.97693 114.113C7.3597 112.566 7.46256 111.921 7.59115 111.792C7.71971 111.663 7.97693 111.096 7.97693 109.859C7.97693 108.621 7.20539 107.022 6.81964 106.378C6.43389 105.991 5.66238 104.831 5.66238 103.284C5.66238 101.737 4.11936 99.2876 3.34785 98.2566C2.44776 97.354 0.570419 95.3948 0.261816 94.776C-0.0467874 94.1572 0.390401 92.4556 0.64757 91.6821V88.975C0.64757 87.7375 0.90474 85.6236 1.03333 84.7209C1.03334 84.3342 0.879049 83.2513 0.261841 82.0138C-0.355366 80.7763 0.261841 79.951 0.647595 79.6934C0.904764 79.5642 1.72771 78.9973 2.96212 77.7597C4.19654 76.5222 4.76231 74.9237 4.89089 74.2791C5.01947 73.5057 5.3538 71.804 5.6624 71.1853C5.971 70.5665 5.79098 70.154 5.6624 70.0251C5.27665 69.2516 4.50514 67.55 4.50514 66.9312C4.50514 66.3124 4.24798 64.0951 4.1194 63.0639C2.88499 61.2075 2.83355 59.1965 2.96214 58.4231C3.3479 57.2629 4.04228 54.8651 3.73368 54.5557C3.42507 54.2463 3.60509 52.8798 3.73368 52.2353C4.04228 50.6884 6.17678 48.4969 7.20546 47.5945C8.36269 45.5319 10.9087 41.4068 11.8345 41.4068C12.7603 41.4068 14.0205 40.1176 14.5348 39.4731C17.6208 36.0699 17.1065 34.4456 16.4635 34.0588C13.0689 30.6556 10.4201 27.7422 9.51995 26.7109C9.51995 25.8085 9.7514 24.0038 10.6772 24.0038C11.603 24.0038 13.6347 22.9725 14.5348 22.4568C16.3864 20.9099 18.9067 19.7497 19.9353 19.363C19.8068 19.4919 20.7068 19.1309 25.3359 16.6558C29.9649 14.1807 32.9223 14.3354 33.8225 14.7222Z" fill="#380F40"/>
</svg>
