<svg width="1240" height="3" viewBox="0 0 1240 3" fill="none" xmlns="http://www.w3.org/2000/svg">
<path d="M11.8111 0.661742C18.7597 0.627279 27.8682 0.585685 34.7905 0.562367C36.96 0.554952 35.8615 0.56865 37.3591 0.564476C40.2881 0.556683 43.0168 0.540898 45.9113 0.534822C46.8706 0.533024 45.6765 0.555425 46.6824 0.553443C52.1942 0.543322 57.4086 0.52159 62.9922 0.508773C90.4951 0.449453 117.53 0.403125 145.369 0.367217C154.549 0.354554 165.707 0.386997 175.189 0.347158C176.295 0.342315 175.636 0.289674 175.846 0.284849C179.149 0.209636 178.051 0.321231 180.207 0.332242C188.767 0.375378 198.285 0.37006 206.522 0.333887C210.026 0.318333 206.512 0.201089 210.041 0.264063C210.286 0.268384 209.397 0.335755 210.358 0.341413C212.537 0.354241 216.672 0.336667 218.361 0.339694C221.617 0.346062 222.155 0.344762 225.235 0.341522C229.444 0.337492 234.45 0.36718 238.966 0.345521C239.93 0.34057 238.654 0.26734 240.191 0.252329C241.73 0.23728 245.801 0.237485 247.173 0.253717C248.546 0.26992 247.962 0.331333 248.205 0.3449C250.203 0.4605 254.912 0.292114 255.517 0.286537C266.564 0.201355 276.037 0.286129 286.406 0.275981C294.278 0.267303 302.695 0.223256 310.185 0.219909C319.108 0.216257 326.671 0.259505 335.34 0.243226C336.255 0.24156 335.183 0.130886 336.3 0.128441C348.172 0.102479 359.961 0.101015 371.782 0.17118C372.967 0.178376 371.44 0.2839 372.624 0.297487C379.875 0.376995 391.349 0.588244 395.655 0.115157C400.567 0.129597 406.53 0.143897 410.925 0.237913C413.758 0.298563 411.006 0.420186 414.486 0.367363C415.271 0.355555 414.251 0.250537 415.428 0.240674C420.384 0.199004 425.799 0.23062 430.702 0.172356C431.699 0.160222 431.427 0.0639892 431.709 0.0464326C434.084 -0.0962417 438.037 0.134009 438.899 0.150856C445.462 0.27424 450.254 0.222455 456.368 0.222573C457.787 0.222695 456.11 0.0907675 457.475 0.0859957C464.555 0.0629 471.89 0.0699685 478.822 0.12681C480.364 0.139798 478.946 0.255676 479.683 0.26783C482.933 0.320316 483.653 0.101702 486.769 0.14755C487.426 0.156969 487.056 0.256372 487.176 0.267226C489.051 0.437893 490.681 0.194695 491.164 0.189032C497.266 0.113026 501.167 0.366907 507.062 0.329555C507.767 0.324759 506.177 0.197971 508.159 0.192185C521.367 0.152783 535.335 0.183628 548.409 0.285449C550.442 0.301101 548.99 0.39893 549.118 0.410929C551.203 0.598749 552.552 0.346642 553.215 0.336994C558.443 0.267701 563.328 0.479493 566.88 0.177401C584.649 0.258986 602.352 0.164944 620 0.265418C624.346 0.290178 628.688 0.326759 633.028 0.38064C633.307 0.383799 632.807 0.509411 633.364 0.515167C640.072 0.585801 638.783 0.390521 643.222 0.15222C644.34 0.0924248 647.741 0.380568 648.042 0.401645C649.138 0.479434 648.001 0.665975 648.368 0.681042C651.406 0.799242 650.911 0.182365 655.009 0.182617C655.138 0.183654 654.599 0.297061 654.943 0.308369C656.012 0.343857 657.072 0.29887 658.117 0.337985C660.511 0.428523 661.363 0.727553 665.019 0.55366C665.481 0.531119 664.775 0.18212 668.434 0.199103C669.893 0.206135 676.35 0.201103 678.159 0.223922C679.967 0.246693 678.726 0.358507 678.855 0.363384C683.724 0.511927 681.878 0.573078 684.318 0.79203C686.758 1.00993 686.081 0.490092 687.076 0.432207C688.072 0.374507 691.643 0.49668 692.52 0.538971C693.397 0.581318 692.303 0.652101 693.083 0.676055C698.254 0.83234 695.353 0.418986 697.056 0.33702C701.073 0.143375 704.202 0.527272 707.879 0.564712C708.874 0.574894 708.062 0.487823 708.948 0.479784C712.457 0.449226 714.568 0.568193 718.56 0.459861C719.213 0.442087 722.441 0.214721 724.53 0.382419C724.826 0.406561 723.985 0.50087 725.48 0.522175C727.714 0.554162 731.74 0.574999 734.142 0.543868C735.915 0.52087 733.882 0.365967 736.114 0.414395C737.106 0.435981 735.268 0.526109 737.131 0.559023C738.984 0.591896 743.724 0.588281 745.527 0.585357C747.327 0.582346 746.342 0.465879 746.487 0.458042C747.368 0.413234 750.822 0.358063 751.128 0.358308C766.527 0.349142 780.727 0.544041 795.72 0.484017C796.896 0.479565 796.113 0.361669 796.292 0.359776C800.32 0.311913 797.144 0.623561 799.958 0.728147C799.551 0.490076 801.212 0.533447 804.05 0.508037C805.417 0.495626 804.672 0.403785 804.797 0.394419C806.824 0.256039 808.237 0.436211 808.6 0.472828C809.943 0.607852 811.404 0.449136 812.318 0.539189C813.231 0.628323 811.13 0.760353 813.851 0.758555C814.614 0.674748 812.593 0.454904 814.66 0.41999C822.455 0.289109 837.005 0.465726 843.273 0.483806C849.528 0.502899 851.548 0.488766 855.193 0.518664C861.777 0.572355 859.364 0.417789 863.452 0.350074C867.552 0.282812 865.559 0.655646 866.148 0.736251C866.727 0.816518 867.358 0.733853 868.078 0.777873C868.795 0.821764 867.242 0.87659 868.93 0.892678C870.617 0.908448 875.233 0.765958 875.831 0.683556C877.096 0.508516 875.016 0.323853 879.483 0.390755C879.74 0.394676 878.906 0.490614 879.889 0.5007C887.702 0.57722 895.818 0.583628 903.621 0.647803C904.694 0.656705 903.735 0.759206 904.359 0.76545C910.863 0.830141 908.538 0.657818 912.102 0.469851C911.302 0.721627 913.273 0.875786 918.209 0.875227C921.176 0.875223 920.666 0.767098 922.585 0.691229C923.16 0.668478 925.26 0.742174 925.64 0.691813C926.895 0.52768 924.917 0.343002 930.006 0.41932C930.23 0.422884 929.519 0.511749 930.29 0.517494C935.277 0.554599 935.874 0.385967 941.264 0.370419C945.49 0.358478 953.004 0.4639 957.815 0.481994C957.714 0.738309 962.258 0.678553 964.102 0.506257C967.224 0.514993 970.597 0.507292 973.614 0.532287C974.653 0.540779 973.971 0.611402 974.102 0.619145C976.11 0.739544 977.467 0.576016 978.141 0.570216C985.446 0.512835 991.397 0.633872 998.368 0.52306C998.615 0.518958 999.016 0.361358 1000.88 0.478085C1001 0.485942 998.698 0.556514 1001.98 0.563671C1005.26 0.571541 1011.44 0.654847 1015.99 0.586865C1017.09 0.570188 1019.88 0.452577 1022.12 0.547348C1022.42 0.560123 1022.09 0.601954 1022.52 0.625452C1023.91 0.699838 1024.67 0.553571 1026.3 0.67812C1027.94 0.802785 1031.34 0.890598 1035.93 0.805924C1036.08 0.803369 1037.16 0.692103 1038.61 0.694197C1040.91 0.697388 1044.19 0.720062 1046.59 0.719252C1047.74 0.718871 1047.01 0.65284 1047.21 0.651641C1054.96 0.617516 1060.47 0.677577 1068.77 0.700794C1070.29 0.704608 1074.67 0.62651 1077.61 0.689362C1080.85 0.756591 1077.52 1.03698 1084.96 0.961125C1087.96 0.928018 1091.75 0.598346 1097.14 0.766675C1107.6 0.725765 1117.26 0.798163 1127.74 0.74525C1128.22 0.742817 1129.71 0.671624 1130.81 0.673287C1132.46 0.67556 1133.36 0.707973 1134.54 0.710053C1139.46 0.719426 1143.96 0.694145 1148.71 0.699255C1150.51 0.70095 1149.88 0.72934 1152.03 0.730576C1154.18 0.73147 1155.61 0.696372 1158.52 0.713458C1160.72 0.726672 1162.91 0.792817 1165.83 0.796723C1165.94 0.733426 1167.95 0.733976 1171.51 0.718255C1172.19 0.715287 1171.46 0.69491 1171.78 0.692513C1173.1 0.682696 1174.32 0.699515 1175.57 0.689071C1175.88 0.686601 1175.89 0.667831 1176.14 0.664873C1178.26 0.639749 1181.74 0.683429 1182.34 0.68959C1184.64 0.715382 1185.71 0.694019 1187.47 0.70398C1189.23 0.713239 1186.6 0.724552 1188.65 0.729714C1192.91 0.739717 1198.37 0.734438 1202.69 0.733447C1204.42 0.732872 1203.24 0.718756 1203.49 0.718323C1207.06 0.715503 1210.66 0.726805 1212.64 0.705123C1215.11 0.760426 1214.79 0.699992 1219.88 0.712726C1220.29 0.713753 1220.8 0.732314 1219.26 0.736766C1217.71 0.741506 1215.38 0.736162 1213.24 0.74384C1212.73 0.745053 1209.83 0.775691 1209.44 0.778826C1206.34 0.799459 1205.9 0.751041 1205.73 0.748121C1203.87 0.718968 1200.33 0.756236 1199.39 0.761197C1195.12 0.77893 1191.49 0.774342 1187.92 0.789875C1185.59 0.800102 1185.36 0.852172 1183.52 0.855034C1177.43 0.866343 1175.3 0.780945 1169.55 0.868276C1168.32 0.88736 1169.54 0.958171 1165.13 0.911117C1164.85 0.908762 1161.57 0.858978 1159.68 0.898891C1159.44 0.904018 1159.45 0.927587 1159.13 0.93035C1157.03 0.948604 1155.63 0.932689 1153.34 0.947688C1151.05 0.962786 1148.3 0.985384 1145.68 0.98303C1144.11 0.981887 1142.08 0.934308 1141.33 0.922499C1139.2 0.888448 1136.92 0.955687 1135.6 0.910835C1134.27 0.864386 1136.87 0.789835 1133.38 0.760114C1133.25 0.839406 1132.95 0.921326 1132.74 1.00202C1125.1 1.01818 1117.57 1.00621 1109.9 1.02584C1108.95 1.02848 1109.92 1.07735 1108.9 1.0818C1104.6 1.10096 1100.84 1.07156 1096.38 1.09707C1092.93 1.11704 1089.14 1.18722 1085.53 1.21331C1083.33 1.09319 1077.97 1.14686 1074.08 1.14386C1072.71 1.14261 1072.8 1.10645 1071.83 1.09651C1068.17 1.0594 1069.89 1.17693 1068.89 1.19828C1064.58 1.29141 1064.21 1.01297 1059.14 1.02584C1058.87 1.02595 1055.59 1.18632 1055.14 1.19761C1052.26 1.26747 1054.66 1.14416 1052.86 1.13592C1049.57 1.12089 1047.29 1.08527 1043.44 1.13976C1042.31 1.1555 1039.62 1.26501 1037.43 1.18849C1037.15 1.1784 1037.31 1.12248 1037.08 1.11959C1032.89 1.07121 1032.78 1.2483 1030.39 1.31472C1028 1.38156 1024.31 1.26453 1023.56 1.22869C1021.59 1.13722 1025.06 1.18566 1025.17 1.17616C1026.42 1.06434 1023.73 1.08708 1021.67 1.08036C1021.37 0.899066 1018.49 0.911646 1019.54 1.07404C1019.65 1.09169 1021.26 1.07256 1021.67 1.08036C1019.86 1.26069 1016.7 1.2934 1013.21 1.12687C1011.57 1.04848 1013.12 0.952366 1008.15 0.991501C1005.9 1.00934 1006.77 1.14023 1004.78 1.1793C1000.23 1.26969 994.326 1.15303 989.64 1.17883C987.94 1.18864 989.596 1.26248 988.434 1.27204C985.35 1.29811 982.63 1.24432 979.532 1.27908C979.251 1.28238 979.937 1.36322 978.974 1.36602C971.671 1.38925 965.312 1.34626 957.688 1.35651C954.003 1.36144 947.418 1.42099 943.601 1.41742C936.987 1.41229 928.85 1.28875 923.199 1.32835C919.514 1.35429 920.323 1.44791 918.744 1.51503C915.696 1.64619 910.303 1.42844 909.576 1.39317C909.554 1.39198 912.726 1.36527 911.033 1.31789C910.049 1.21578 909.612 1.39261 909.576 1.39317C909.1 1.37105 902.764 1.35655 901.507 1.37678C900.823 1.38787 901.205 1.48047 900.849 1.48455C892.378 1.57982 883.893 1.61879 875.301 1.58523C875.15 1.58347 875.378 1.47436 875.022 1.47152C870.048 1.42878 866.863 1.56636 862.761 1.6529C858.66 1.73921 855.407 1.71788 852.979 1.52742C849.885 1.55545 845.444 1.47455 842.89 1.42423C840.335 1.37388 839.978 1.59711 839.753 1.60183C832.742 1.75164 828.689 1.62872 821.414 1.6156C817.956 1.60915 811.096 1.64937 807.351 1.67862C804.392 1.70217 802.609 1.64938 799.882 1.68701C799.513 1.69205 799.886 1.7957 799.774 1.79982C796.73 1.92783 798.193 1.6715 797.564 1.62659C795.286 1.46316 793.879 1.37514 789.982 1.45625C789.083 1.47461 786.464 1.84737 784.826 1.87112C782.695 1.901 783.5 1.7668 781.269 1.80129C781.078 1.80412 781.118 1.88651 779.741 1.88432C773.35 1.87525 766.383 1.83324 759.742 1.8473C758.834 1.84893 759.997 1.98098 758.687 1.98563C752.536 2.00733 745.795 2.00879 739.804 1.9504C738.329 1.93559 739.253 1.8403 738.933 1.81247C736.968 1.64379 734.181 1.89278 733.721 1.89798C722.75 2.0256 714.354 1.80494 703.173 1.91871C702.564 1.92524 697.879 2.19828 695.789 1.96736C695.646 1.95206 693.578 1.71532 691.749 1.87864C691.635 1.88888 692.924 2.01068 690.675 1.99929C688.427 1.98785 684.807 2.07158 681.716 1.93785C680.738 1.89579 678.425 1.65818 675.506 1.84919C675.315 1.86237 670.809 2.29449 669.2 1.99798C668.939 1.94916 669.212 1.63457 665.728 1.79676C665.063 1.82823 666.271 1.89809 664.517 1.94243C661.83 2.01083 658.27 1.92733 654.967 2.06862C654.391 2.0936 651.939 2.30848 649.972 2.1463C649.664 2.1209 650.249 2.01537 649.21 2.00378C644.27 1.94813 639.098 2.01946 634.083 1.94687C632.306 1.92135 633.215 1.75056 631.363 1.70492C629.511 1.6593 625.78 1.61542 623.842 1.6935C621.904 1.77161 624.021 2.04378 621.117 2.0656C620.745 2.0684 620.372 2.07097 620 2.07333C607.756 2.15089 595.617 1.99821 583.384 1.97278C581.515 1.96884 583.065 2.0663 580.309 2.06738C570.152 2.07231 552.615 2.15439 543.802 1.94571C536.74 1.77922 545.627 1.65894 540.23 1.59042C537.626 1.55796 534.809 1.86738 534.18 1.87672C528.039 1.97251 523.771 1.83284 518.244 1.87145C517.103 1.8794 518.222 2.00492 517.251 2.01025C513.933 2.02948 510.445 1.97135 507.275 1.9791C505.852 1.98284 506.114 2.0777 504.806 2.06929C501.674 2.0503 498.904 2.00815 495.851 1.91754C495.573 1.90932 497.449 1.79369 495.132 1.78766C491.382 1.77809 486.727 1.68849 482.413 1.77414C481.132 1.79994 481.082 2.01235 478.33 1.86318C477.753 1.83199 478.49 1.57814 475.284 1.79534C474.745 1.83181 469.36 2.12136 466.718 1.92857C466.02 1.87784 464.241 1.67001 462.702 1.70115C462.493 1.70611 463.329 1.81945 462.054 1.82918C457.558 1.86142 452.846 1.84457 448.227 1.87425C446.994 1.88234 448.831 1.9994 446.993 2.00761C441.937 2.03022 435.626 1.99247 430.683 1.95057C428.86 1.9349 430.12 1.84321 429.987 1.83284C427.855 1.66516 426.594 1.88646 425.886 1.89832C421.484 1.96978 418.132 1.86123 414.075 1.88305C412.955 1.88871 413.749 1.99425 413.526 2.00324C411.215 2.0905 412.937 1.90584 411.473 1.88311C407.374 1.81894 402.805 1.82122 398.659 1.82817C397.136 1.83086 398.848 1.95223 397.481 1.9531C389.393 1.96033 380.985 1.93343 373.092 1.85648C371.606 1.84181 372.541 1.75531 372.231 1.73466C370.096 1.59091 366.968 1.77757 366.248 1.79412C362.974 1.87104 361.702 1.79171 358.812 1.80097C344.689 1.84613 327.252 1.75951 313.922 1.70376C296.551 1.62984 283.071 1.53236 266.506 1.51489C265.453 1.5136 266.515 1.61005 265.607 1.60996C253.889 1.6032 242.354 1.53877 230.613 1.53199C229.649 1.53115 231.038 1.61518 229.492 1.61619C226.32 1.61876 222.302 1.60161 219.095 1.56727C217.53 1.55077 219.629 1.49093 218.054 1.47599C214.388 1.4413 210.458 1.42595 206.692 1.42739C205.089 1.42803 207.507 1.51012 205.424 1.50468C191.235 1.46984 177.3 1.42961 162.961 1.30444C161.978 1.29569 161.115 1.16891 159.025 1.18763C158.868 1.22134 158.877 1.26145 158.808 1.29766C138.152 1.25088 117.707 1.14464 96.9931 1.07313C96.1198 1.06993 97.6291 1.11731 95.9383 1.11089C86.1522 1.07472 76.6493 1.04346 66.6392 0.976153C65.646 0.969616 66.1556 0.919731 63.2287 0.918807C62.7125 0.918707 58.3043 0.911691 57.1646 0.917501C57.0098 0.918386 57.814 0.942441 56.3935 0.937764C48.1387 0.910271 39.4881 0.871267 31.2476 0.834182C29.9177 0.828254 31.334 0.820841 30.3867 0.816803C23.6673 0.790485 16.3586 0.772447 9.93789 0.74796C5.64012 0.73298 7.23128 0.732253 4.9475 0.724681C4.62448 0.723739 1.96317 0.720086 1.82554 0.719379C1.47222 0.717895 2.76127 0.714432 2.23234 0.712533C2.14604 0.712337 0.000324895 0.717766 0 0.717773C0 0.717773 0 0.717773 0 0.717773C9.57174e-05 0.717767 0.186465 0.71731 0.666635 0.71584C0.814057 0.715481 3.39811 0.707457 4.03456 0.704422C4.47768 0.70231 3.67916 0.703637 4.58327 0.699339C5.4873 0.694741 6.48071 0.692917 7.97958 0.685579C9.47778 0.677835 8.81901 0.6765 11.8111 0.661742ZM831.386 1.19641C829.02 1.08925 828.671 1.48718 831.23 1.38992C831.353 1.38474 831.508 1.20165 831.386 1.19641ZM1117.62 0.885201C1114.52 0.817212 1112.41 0.925921 1114.59 0.978302C1116.77 1.02887 1118.56 0.904933 1117.62 0.885201ZM1149.69 0.805822C1146.07 0.765204 1145.5 0.944703 1149.38 0.901366C1149.6 0.898873 1149.9 0.808049 1149.69 0.805822ZM15.5385 0.736227C15.5058 0.73588 13.5928 0.733431 13.5471 0.733635C12.5284 0.738164 16.3537 0.744879 15.5385 0.736227ZM1181.51 0.748062C1180.38 0.732835 1177.14 0.752663 1178.54 0.772197C1179.67 0.787158 1182.92 0.766062 1181.51 0.748062ZM707.979 0.779303C707.941 0.772755 706.57 0.766883 706.597 0.803939C706.691 0.923281 708.599 0.889434 707.979 0.779303ZM1235.6 0.719951C1227.61 0.727706 1222.77 0.696318 1231.47 0.708689C1233.04 0.710073 1228.07 0.711167 1230.08 0.714063C1233.75 0.716359 1236.19 0.713537 1239.93 0.717625C1240.61 0.716971 1236.06 0.71859 1235.59 0.719969C1235.59 0.719963 1235.6 0.719957 1235.6 0.719951ZM830.023 0.720179C829.976 0.714932 828.077 0.709929 828.032 0.715148C827.004 0.841696 830.829 0.85122 830.023 0.720179ZM627.948 0.503207C627.843 0.490564 623.437 0.478712 623.293 0.490361C620.995 0.723269 629.903 0.747855 627.948 0.503207ZM957.891 0.48886C959.963 0.389266 962.441 0.380731 964.092 0.506125C962.034 0.498378 959.961 0.496232 957.891 0.48886Z" fill="#E69900"/>
</svg>
