<svg width="629" height="244" viewBox="0 0 629 244" fill="none" xmlns="http://www.w3.org/2000/svg">
<path d="M1.95994 52.2729C3.94315 54.212 2.78628 55.774 1.95994 56.3127C1.40902 57.7939 0.637735 60.8371 1.95994 61.1602C3.28215 61.4834 3.61258 64.7961 3.61252 66.412C3.88797 67.3546 3.94306 69.563 1.95985 70.8558C-0.0233512 72.1485 1.13352 73.2797 1.95985 73.6836C2.78619 73.953 4.10832 74.8956 2.78619 76.5115C1.46405 78.1274 2.2353 79.6087 2.78619 80.1473C3.33708 82.1672 4.10832 86.4494 2.78619 87.419C1.46405 88.3885 2.2353 90.2468 2.78619 91.0548C3.88797 91.7281 5.59573 93.6403 3.61252 95.9026C1.62932 98.1649 2.2353 99.5384 2.78619 99.9424C3.61252 100.481 4.76939 102.043 2.78619 103.982C0.802984 105.921 1.95985 108.022 2.78619 108.83C3.06163 110.581 3.28199 114.486 1.95985 116.102C0.637717 117.718 1.95985 119.199 2.78619 119.737C1.95985 120.68 0.637717 122.888 1.95985 124.181C3.28199 125.474 3.61252 126.874 3.61252 127.413C3.06163 129.164 2.29039 133.23 3.61252 135.493C4.93466 137.755 3.06163 141.552 1.95985 143.168C1.13352 145.592 -0.0233512 150.763 1.95985 152.056C3.94306 153.349 3.88797 157.981 3.61252 160.136C2.51074 161.482 0.968251 164.499 3.61252 165.791C6.25679 167.084 4.7143 170.1 3.61252 171.447C3.61252 172.659 3.282 175.81 1.95989 178.719C0.637776 181.627 1.40901 182.893 1.95989 183.162C2.78621 183.566 4.10832 184.698 2.78619 185.99C1.46405 187.283 1.68443 188.953 1.95989 189.626C3.06167 190.165 4.60416 191.888 1.95989 194.474C-0.684386 197.059 0.858106 200.399 1.95989 201.746C3.33711 203.496 5.59576 207.159 3.61256 207.805C1.62935 208.452 1.68444 212.114 1.95989 213.865C1.68444 214.538 1.29882 216.37 1.95989 218.309C2.62095 220.248 2.23533 222.349 1.95989 223.157C2.78622 224.368 4.10836 227.6 2.78622 230.832C1.46409 234.064 3.888 235.949 5.26522 236.488C6.64245 236.757 10.2232 237.7 13.5286 239.316C16.8339 240.932 22.6183 242.144 25.0973 242.548C28.4026 242.278 35.1785 241.82 35.8396 242.144C36.5007 242.467 44.3784 242.278 48.2346 242.144C49.6118 242.009 53.3579 241.82 57.3243 242.144C61.2907 242.467 63.935 242.278 64.7613 242.144C67.5158 241.874 73.5205 241.497 75.5037 242.144C77.4869 242.79 81.288 242.413 82.9407 242.144C85.4197 242.548 91.0388 243.194 93.683 242.548C96.3273 241.901 100.294 241.74 101.946 241.74C105.527 242.009 113.35 242.386 115.994 241.74C118.638 241.093 124.808 242.009 127.563 242.548C128.94 242.817 132.521 243.194 135.826 242.548C139.131 241.901 144.916 241.74 147.395 241.74C151.251 242.144 159.625 242.871 162.269 242.548C164.913 242.224 170.532 242.144 173.011 242.144C174.388 242.144 177.639 242.224 179.622 242.548C181.605 242.871 183.754 242.413 184.58 242.144C186.508 242.548 190.695 243.275 192.017 242.952C193.339 242.628 196.975 242.278 198.628 242.144C200.28 242.278 204.412 242.467 207.717 242.144C211.023 241.82 213.502 242.009 214.328 242.144C216.531 242.548 221.269 243.194 222.591 242.548C223.913 241.901 229.202 242.009 231.681 242.144C233.884 242.548 238.787 243.194 240.771 242.548C242.754 241.901 246.555 241.74 248.208 241.74C250.136 242.413 254.488 243.598 256.471 242.952C258.454 242.305 261.154 242.144 262.255 242.144C262.806 242.278 264.404 242.467 266.387 242.144C268.37 241.82 270.519 242.009 271.345 242.144C274.099 242.682 280.269 243.517 282.914 242.548C285.558 241.578 291.728 241.605 294.482 241.74C296.135 242.009 300.267 242.386 303.572 241.74C306.877 241.093 311.009 241.74 312.662 242.144C315.416 242.952 322.578 244.244 329.188 242.952C335.799 241.659 340.757 241.605 342.41 241.74C344.613 242.144 350.673 242.79 357.284 242.144C363.894 241.497 368.852 241.874 370.505 242.144C374.361 242.952 383.726 244.244 390.337 242.952C396.948 241.659 402.457 242.144 404.385 242.548C405.762 242.952 410.334 243.517 417.606 242.548C424.878 241.578 430.001 242.144 431.654 242.548C436.612 243.086 447.52 243.921 451.486 242.952C455.452 241.982 461.402 242.009 463.881 242.144C465.809 242.817 470.822 243.84 475.45 242.548C480.077 241.255 482.887 241.74 483.713 242.144C485.366 242.817 489.828 243.84 494.455 242.548C499.083 241.255 502.443 241.74 503.545 242.144C512.139 244.083 515.94 243.221 516.766 242.548C517.868 242.009 521.229 241.174 525.856 242.144C530.483 243.113 534.395 242.817 535.772 242.548C538.251 242.009 543.54 241.093 544.862 241.74C546.184 242.386 549.269 242.548 550.646 242.548C551.472 242.413 554.612 242.224 560.562 242.548C566.512 242.871 570.203 242.144 571.304 241.74C572.406 241.47 576.262 241.174 582.873 242.144C589.484 243.113 594.442 242.548 596.094 242.144H604.358C608.324 242.144 611.519 240.528 612.621 239.72C625.181 235.518 627.22 231.505 626.669 230.024C625.842 229.082 624.355 227.035 625.016 226.388C625.842 225.58 625.842 223.157 625.842 221.541V215.885C625.292 214.404 624.355 211.118 625.016 209.825C625.677 208.532 625.292 205.247 625.016 203.765C624.741 202.688 624.52 200.049 625.842 198.11C627.165 196.171 626.944 194.339 626.669 193.666C626.669 193.262 626.173 191.323 624.19 186.798C622.207 182.274 623.914 180.335 625.016 179.931C626.944 179.123 630.139 176.86 627.495 174.275C624.851 171.689 624.19 169.158 624.19 168.215C625.567 165.253 627.991 159.085 626.669 158.116C625.016 156.904 626.669 154.076 626.669 152.864C626.669 151.894 626.118 150.305 625.842 149.632V141.956C625.842 139.371 626.393 138.455 626.669 138.321C627.771 136.974 629.313 133.877 626.669 132.261C624.025 130.645 625.016 127.817 625.842 126.605C627.22 125.259 629.313 122.161 626.669 120.545C624.025 118.929 625.016 115.832 625.842 114.486C626.669 113.543 627.991 111.092 626.669 108.83C625.347 106.568 625.016 103.309 625.016 101.962C626.118 100.481 627.826 97.2761 625.842 96.3066C623.859 95.337 625.016 91.8628 625.842 90.2468C626.393 88.2269 627.165 84.0256 625.842 83.3792C624.52 82.7328 625.292 79.6087 625.842 78.1274C626.118 76.9155 626.504 74.1684 625.842 72.8757C625.181 71.5829 625.567 70.1825 625.842 69.6438C626.118 68.7012 626.669 66.412 626.669 64.7961C626.669 63.1801 625.567 61.4296 625.016 60.7563C625.016 59.5443 625.181 56.7164 625.842 55.1005C626.504 53.4846 625.567 51.1954 625.016 50.2528C625.567 49.4448 626.504 47.4249 625.842 45.809C625.181 44.193 625.567 41.9038 625.842 40.9612C626.393 39.2106 627.165 35.4671 625.842 34.4975C624.52 33.528 625.842 31.6696 626.669 30.8617C627.495 29.3804 628.652 26.0947 626.669 24.802C624.686 23.5092 625.842 21.3008 626.669 20.3582C626.118 19.6849 625.347 17.7727 626.669 15.5104C627.991 13.2481 626.118 11.6053 625.016 11.0666C623.363 9.98934 619.893 7.51159 619.232 6.21885C618.405 4.60293 610.968 1.77506 607.663 1.77506C605.019 1.77506 598.298 1.50574 595.268 1.37108C587.335 0.40153 580.945 1.23642 578.741 1.77506C576.813 2.17905 571.8 2.74462 567.173 1.77506C562.545 0.80551 558.634 1.10176 557.257 1.37108C554.227 2.31371 547.341 3.79497 544.035 2.17905C540.73 0.563122 532.742 0.697782 529.161 0.967103C527.509 1.23642 523.873 1.69427 522.551 1.37108C521.229 1.0479 514.287 0.967103 510.982 0.967103C507.401 1.23642 499.909 1.69427 498.587 1.37108C497.265 1.0479 493.078 1.23642 491.15 1.37108C488.396 1.77506 481.565 2.34064 476.276 1.37108C470.987 0.40153 464.156 0.967103 461.402 1.37108C460.3 1.77506 456.113 2.34064 448.181 1.37108C440.248 0.40153 436.061 0.967103 434.959 1.37108C431.929 1.90972 424.382 2.74462 418.433 1.77506C412.483 0.80551 408.792 0.832442 407.69 0.967103C404.66 1.23642 397.939 1.77506 395.295 1.77506C391.99 1.77506 390.337 1.77506 385.379 0.967103C381.413 0.320734 370.505 0.967103 365.547 1.37108C362.793 1.23642 356.457 0.967103 353.152 0.967103C349.847 0.967103 347.919 1.50574 347.368 1.77506C345.44 1.50574 340.922 1.0479 338.278 1.37108C335.634 1.69427 330.015 2.04438 327.536 2.17905C325.883 1.90972 320.595 1.45187 312.662 1.77506C304.729 2.09826 298.889 1.64041 296.961 1.37108C295.309 1.6404 291.342 2.01745 288.698 1.37108C286.054 0.724714 284.291 1.10176 283.74 1.37107C281.812 1.90972 277.129 2.66382 273.824 1.37107C270.519 0.0783242 265.836 0.832427 263.908 1.37107C260.327 1.23641 251.678 0.886295 245.729 0.563111C239.779 0.239926 228.376 1.23641 223.418 1.77505C220.939 2.04437 214.658 2.34063 209.37 1.37107C204.081 0.401518 196.699 1.23641 193.67 1.77505C187.885 2.17903 175.49 2.74461 172.185 1.77505C168.879 0.805499 160.892 1.10175 157.311 1.37107C155.658 1.50578 150.535 1.69438 143.263 1.37107C135.991 1.04776 130.317 1.50568 128.389 1.77505C125.359 2.44839 117.151 3.39108 108.557 1.77521C99.9632 0.159337 92.3058 0.563248 89.5514 0.967187C86.7969 1.64051 79.9659 2.74476 74.6773 1.77521C69.3888 0.805657 63.1086 0.832589 60.6296 0.967249C58.7015 1.37125 53.8537 2.01766 49.8873 1.37129C45.9209 0.724916 39.9713 1.10197 37.4923 1.37129C35.5642 1.50595 30.7163 1.69447 26.7499 1.37129C22.7835 1.0481 16.8339 2.31391 14.3549 2.98721C13.2531 3.39119 10.2232 4.76473 6.91789 7.02702C3.61256 9.28931 3.33711 11.7401 3.61256 12.6827C2.51078 13.8947 0.637761 16.6418 1.95994 17.9345C3.28213 19.2272 3.61259 22.2436 3.61256 23.5902C2.78622 24.6675 1.29883 27.0645 1.95994 28.034C2.62106 29.0036 3.33715 31.1312 3.61256 32.0738C2.51078 33.0164 0.803017 35.3057 2.78622 36.9216C4.76942 38.5375 2.51078 41.0961 1.13355 42.1733C1.68446 42.9813 2.62101 45.1628 1.95994 47.4251C1.29888 49.6874 1.6845 51.5996 1.95994 52.2729Z" stroke="#E69900"/>
</svg>
