<svg width="1243" height="263" viewBox="0 0 1243 263" fill="none" xmlns="http://www.w3.org/2000/svg">
<path d="M4.82425 23.6496C6.02324 26.0307 5.32383 30.9252 4.82425 33.0748C5.49036 42.0039 6.323 62.3425 4.32468 72.2638C2.32636 82.185 3.49204 89.2953 4.32468 91.6102C5.98994 100.043 8.52115 118.298 5.32384 123.854C2.12653 129.41 2.99246 132.122 3.82509 132.783C3.99162 134.272 4.22476 138.538 3.82509 143.697C3.42543 148.856 4.65773 155.106 5.32384 157.587C5.98994 158.413 6.62274 161.952 3.82509 169.492C1.02744 177.032 1.3272 184.209 1.82678 186.854C3.49204 189.5 6.22308 196.478 3.82509 203.224C1.42711 209.971 2.82593 217.941 3.82509 221.083C4.99078 225.382 6.62274 235.865 3.82509 243.405C1.02745 250.946 2.65941 254.815 3.82509 255.807C7.15562 258.783 15.7151 263.843 23.3087 260.272C30.9023 256.7 35.4652 257.13 36.7974 257.791C39.7949 257.626 48.3876 257.394 58.7789 257.791C69.1702 258.188 74.4324 256.634 75.7646 255.807C78.5956 257.295 85.5564 259.775 90.752 257.791C95.9476 255.807 102.242 257.626 104.74 258.783C116.73 254.021 120.727 254.815 121.226 255.807C122.892 257.626 127.621 260.768 133.216 258.783C138.812 256.799 144.873 257.957 147.205 258.783C152.866 259.445 165.489 260.172 170.685 257.791C175.88 255.41 186.505 256.799 191.168 257.791C197.829 258.453 212.35 259.577 217.146 258.783C221.942 257.99 230.468 257.791 234.131 257.791C236.962 258.618 244.822 259.775 253.615 257.791C262.408 255.807 267.936 256.303 269.602 256.799C271.6 258.122 276.696 260.272 281.092 258.287C285.488 256.303 294.248 256.468 298.078 256.799C301.741 258.287 310.667 260.668 317.062 258.287C323.456 255.906 343.706 256.634 353.031 257.295C357.528 258.783 368.918 261.065 378.51 258.287C388.102 255.509 395.829 256.138 398.493 256.799C401.99 258.122 410.383 260.272 415.978 258.287C421.574 256.303 425.304 257.461 426.47 258.287C430.966 259.114 440.658 260.569 443.455 259.775C446.253 258.982 450.283 259.775 451.948 260.272C455.279 261.098 464.837 261.958 476.428 258.783C488.018 255.609 491.915 256.138 492.414 256.799C497.41 258.618 509 261.859 515.395 260.272C521.79 258.684 525.053 259.279 525.886 259.775C531.381 260.272 543.471 260.966 547.868 259.775C552.264 258.585 560.69 258.287 564.354 258.287C569.016 258.783 579.641 259.379 584.836 257.791C590.032 256.204 599.99 256.138 604.32 256.303C606.651 258.122 612.813 261.363 618.808 259.775C624.803 258.188 629.299 258.122 630.798 258.287C632.463 259.61 636.993 261.76 641.789 259.775C646.584 257.791 652.113 257.626 654.278 257.791C656.776 259.445 662.971 262.157 667.767 259.775C672.563 257.394 683.087 256.138 687.75 255.807C690.747 256.799 698.041 258.684 703.237 258.287C708.433 257.89 709.398 258.122 709.232 258.287C713.228 258.618 722.221 259.081 726.218 258.287C730.214 257.494 736.209 256.964 738.707 256.799C740.539 257.13 745.401 257.593 750.197 256.799C754.993 256.005 761.188 256.468 763.686 256.799C768.349 258.618 778.773 261.661 783.17 259.279C787.566 256.898 793.328 257.295 795.659 257.791C797.824 258.453 803.253 259.379 807.649 257.791C812.045 256.204 816.475 257.13 818.14 257.791C823.136 259.61 835.326 262.355 844.118 258.783C852.911 255.212 857.107 255.972 858.107 256.799C860.105 258.453 865.3 261.164 870.097 258.783C874.892 256.402 876.758 256.799 877.091 257.295C879.589 258.122 886.083 259.279 892.078 257.295C898.073 255.311 902.569 256.468 904.068 257.295C906.566 258.287 912.761 260.172 917.557 259.775C922.353 259.379 927.215 257.626 929.047 256.799C930.879 257.295 935.142 257.99 937.54 256.799C939.938 255.609 946.199 256.303 949.03 256.799C953.027 257.957 962.119 259.875 966.515 258.287C970.912 256.7 978.006 256.634 981.003 256.799C987.664 256.799 1003.08 256.501 1011.48 255.311C1019.87 254.12 1029.63 256.799 1033.46 258.287C1037.62 258.949 1048.05 259.577 1056.44 256.799C1064.83 254.021 1071.59 257.295 1073.92 259.279C1078.75 259.279 1089.21 259.081 1092.41 258.287C1095.61 257.494 1101.4 257.957 1103.9 258.287C1114.69 256.303 1116.72 256.138 1116.39 256.303C1125.18 258.684 1130.04 259.279 1131.38 259.279C1142.57 255.311 1150.36 255.972 1152.86 256.799C1163.25 261.164 1176.17 260.933 1181.33 260.272C1185.66 259.941 1196.12 258.982 1203.32 257.791C1210.51 256.601 1219.3 257.626 1222.8 258.287C1238.79 257.097 1240.12 252.169 1238.79 249.854C1238.45 248.035 1237.79 243.306 1237.79 238.941C1237.79 234.576 1238.79 228.193 1239.29 225.547C1238.29 221.909 1236.79 213.542 1238.79 209.177C1241.28 203.72 1237.29 197.272 1238.79 188.342C1239.99 181.199 1238.29 171.146 1237.29 167.012C1236.62 160.563 1235.99 146.872 1238.79 143.697C1241.58 140.522 1239.95 131.791 1238.79 127.823C1239.29 124.516 1239.69 117.207 1237.29 114.429C1234.89 111.651 1238.29 100.705 1240.29 95.5787C1239.62 92.437 1238.69 85.1614 1240.29 81.1929C1241.88 77.2244 1238.95 69.2874 1237.29 65.815C1239.62 59.3662 1243.48 45.1788 1240.29 40.0197C1237.09 34.8607 1238.95 25.6339 1240.29 21.6654C1240.29 15.7126 1238.49 4.10479 1231.29 5.29534C1224.1 6.48589 1215.64 5.79141 1212.31 5.29534C1204.81 3.80715 1187.93 1.42603 1180.34 3.80716C1172.74 6.18828 1169.84 5.79142 1169.34 5.29534C1166.35 3.31109 1158.85 -0.0621353 1152.86 2.31897C1146.86 4.70007 1140.04 5.95676 1137.37 6.28747C1132.38 4.96463 1121.29 2.91424 1116.89 5.29534C1112.49 7.67644 1102.07 5.29534 1097.41 3.80716C1093.24 3.47645 1081.92 3.11267 1069.93 4.30322C1057.94 5.49377 1049.28 4.79928 1046.45 4.30322C1042.28 3.6418 1032.06 2.71582 1024.47 4.30322C1016.87 5.89062 1010.64 4.96463 1008.48 4.30322C1005.48 3.80716 998.888 3.11267 996.49 4.30322C994.092 5.49377 985.166 5.79141 981.003 5.79141C979.005 3.97251 973.11 1.12842 965.516 4.30322C957.923 7.47802 954.026 6.61818 953.027 5.79141C951.861 4.79928 947.931 2.71582 941.536 2.31897C935.142 1.92212 927.881 2.48432 925.05 2.81503C922.053 2.98038 915.558 3.4103 913.56 3.80716C911.562 4.20401 910.063 4.30322 909.563 4.30322C907.732 3.6418 902.769 2.71582 897.573 4.30322C892.378 5.89062 887.415 5.95676 885.583 5.79141C878.256 3.80716 862.703 0.334715 859.106 2.31897C855.509 4.30322 850.28 4.46857 848.115 4.30322C842.453 2.98038 830.13 0.92999 826.133 3.31109C822.137 5.69219 815.476 4.96463 812.645 4.30322C807.982 3.31109 797.458 1.72369 792.662 3.31109C787.866 4.89849 778.673 3.97251 774.677 3.31109C772.012 2.98039 765.984 2.71584 763.186 4.30322C760.389 5.8906 753.694 4.30321 750.697 3.31109C749.365 3.47645 745.102 3.50952 738.707 2.31899C732.312 1.12847 722.387 1.82294 718.224 2.31899C714.061 4.13788 704.036 7.27959 697.242 5.29534C690.448 3.31109 680.423 3.14574 676.26 3.31109C671.264 3.97251 660.573 4.89849 657.775 3.31109C654.977 1.72369 652.946 1.98828 652.28 2.31899C649.615 3.64182 641.888 5.69219 632.297 3.31109C622.705 0.92999 611.98 1.65757 607.817 2.31899C602.655 3.80717 590.632 6.4859 583.837 5.29537C577.043 4.10484 568.683 4.79932 565.353 5.29537C559.358 3.31112 546.169 -0.0621081 541.373 2.31899C536.577 4.7001 530.382 4.63395 527.884 4.30325C524.887 3.31112 518.392 1.52529 516.394 2.31899C514.396 3.11269 501.573 3.31112 495.412 3.31112C491.248 3.31112 481.623 3.50954 476.428 4.30325C471.232 5.09695 468.601 3.97254 467.935 3.31112C465.437 3.31112 459.742 3.50954 456.944 4.30325C454.146 5.09695 446.453 3.31112 442.956 2.31899C440.125 2.6497 433.164 3.31112 427.968 3.31112C422.773 3.31112 414.813 3.97254 411.482 4.30325C410.15 3.64183 405.787 2.71584 398.993 4.30325C392.198 5.89065 383.506 3.64183 380.009 2.31899C376.845 2.31899 368.418 2.71584 360.025 4.30325C351.633 5.89065 342.207 4.30325 338.544 3.31112H326.054C322.057 3.31112 316.062 4.30325 313.565 4.79931C309.734 4.63395 300.875 4.10482 296.079 3.31112C291.283 2.51742 285.755 2.98041 283.59 3.31112C280.759 4.63395 272.599 6.68435 262.607 4.30325C252.616 1.92214 243.124 3.31112 239.627 4.30325C236.962 3.47647 229.935 1.82293 223.141 1.82293C216.346 1.82293 203.657 4.4686 198.162 5.79143C192.333 4.96463 180.277 3.50947 178.678 4.30325C176.68 5.29546 166.688 4.30325 163.691 3.31103C161.293 2.51725 154.698 3.64177 151.701 4.30325C147.538 3.14577 138.312 1.22764 134.715 2.81499C131.118 4.40233 121.559 3.80707 117.23 3.31103C112.234 4.1378 101.643 5.29528 99.2449 3.31103C96.8469 1.32677 86.9219 2.15356 82.2591 2.81499C77.2633 2.81499 66.5723 3.41026 63.7747 5.79134C60.977 8.17242 52.2844 5.79135 48.2877 4.30317C45.2902 4.46852 38.6958 4.70001 36.2978 4.30317C33.8998 3.90634 24.6409 3.1457 20.3112 2.81499C15.6485 2.64963 6.02324 2.71577 4.82425 4.30317C3.62526 5.89057 4.32467 7.94097 4.82425 8.76774C4.32467 12.7362 3.62526 21.2685 4.82425 23.6496Z" fill="#1E0024" stroke="#E69900" stroke-width="3"/>
</svg>
