<svg width="67" height="41" viewBox="0 0 67 41" fill="none" xmlns="http://www.w3.org/2000/svg">
<path d="M1.75 32.788C1.35 33.588 1.58333 34.4547 1.75 34.788C1.35 35.5881 1.58333 37.1213 1.75 37.7878L2.25 37.2878C2.65 36.8878 3.41667 37.4545 3.75 37.7878C3.91667 38.1212 4.35 38.7878 4.75 38.7878C5.15 38.7878 5.91667 39.1212 6.25 39.2878C6.58333 39.7878 7.45 40.5878 8.25 39.7878C9.25 38.7878 11.75 38.2878 12.25 38.2878C12.65 38.2878 14.0833 38.9545 14.75 39.2878C14.9167 39.4545 15.45 39.5878 16.25 38.7878C17.05 37.9878 17.9167 38.1212 18.25 38.2878C18.5833 38.6212 19.45 39.3878 20.25 39.7878C21.25 40.2878 21.25 39.7878 22.25 39.2878C23.05 38.8878 23.9167 39.1212 24.25 39.2878C24.9167 39.7878 26.55 40.6878 27.75 40.2878C28.95 39.8878 29.9167 40.1212 30.25 40.2878C30.75 40.6212 32.05 40.9878 33.25 39.7878C34.45 38.5878 35.0833 38.6212 35.25 38.7878C35.75 39.1212 36.95 39.5878 37.75 38.7878C38.55 37.9878 39.4167 37.7878 39.75 37.7878C40.0833 37.9545 40.95 38.2878 41.75 38.2878C42.55 38.2878 45.0833 38.6212 46.25 38.7878C46.75 38.7878 47.95 38.6878 48.75 38.2878C49.55 37.8878 50.4167 38.1212 50.75 38.2878H52.75C53.75 38.6212 56.05 39.2878 57.25 39.2878C58.45 39.2878 59.4167 39.6212 59.75 39.7878C59.75 39.6212 59.85 39.1878 60.25 38.7878C60.65 38.3878 62.4167 38.6212 63.25 38.7878L62.25 36.7878C61.85 35.9878 61.4167 34.1212 61.25 33.2878C61.5833 32.2878 62.45 30.1878 63.25 29.7878C64.05 29.3878 64.5833 27.6212 64.75 26.7878C64.9167 26.1212 65.35 24.5878 65.75 23.7878C66.15 22.9878 65.5833 21.4545 65.25 20.7878C65.4167 20.1212 65.75 18.6878 65.75 18.2878C65.75 17.8878 66.0833 17.1212 66.25 16.7878C66.25 16.2878 66.15 15.2878 65.75 15.2878C65.35 15.2878 64.9167 14.6212 64.75 14.2878C64.75 13.0878 64.0833 12.1212 63.75 11.7878V9.78784C63.75 8.98784 62.4167 8.78784 61.75 8.78784C61.5833 8.45451 61.35 7.78784 61.75 7.78784C62.15 7.78784 62.25 6.78784 62.25 6.28784C62.65 5.48784 63.0833 2.95451 63.25 1.78784L62.25 2.78784C61.45 3.58784 59.25 3.78784 58.25 3.78784C58.0833 3.45451 57.65 2.78784 57.25 2.78784C56.85 2.78784 56.0833 2.12118 55.75 1.78784C54.9167 1.12118 53.25 0.187842 53.25 1.78784C53.25 3.38784 52.5833 3.45451 52.25 3.28784L50.25 2.28784C49.45 1.88784 47.9167 2.78784 47.25 3.28784C47.0833 3.45451 46.45 3.58784 45.25 2.78784C44.05 1.98784 43.0833 2.45451 42.75 2.78784C42.5833 3.12118 42.35 3.98784 42.75 4.78784C43.15 5.58784 41.5833 5.78784 40.75 5.78784C40.0833 5.45451 38.75 4.98784 38.75 5.78784C38.75 6.58784 38.0833 7.12118 37.75 7.28784C37.25 7.28784 36.25 6.98784 36.25 5.78784C36.25 4.58784 34.5833 3.95451 33.75 3.78784C33.4167 3.12118 32.55 1.68784 31.75 1.28784C30.95 0.887842 30.75 2.12118 30.75 2.78784C30.4167 3.28784 29.75 3.98784 29.75 2.78784C29.75 1.58784 29.4167 0.954576 29.25 0.787943C28.5833 0.287943 27.15 -0.312057 26.75 1.28794C26.35 2.88794 24.9167 2.62134 24.25 2.28804C23.4167 1.62137 21.75 0.588037 21.75 1.78804C21.75 2.98804 20.4167 2.62139 19.75 2.28807C18.4167 1.78807 15.65 0.98807 15.25 1.78807C14.85 2.58807 13.75 2.78807 13.25 2.78807C12.9167 2.78804 12.05 2.68798 11.25 2.28798C10.45 1.88798 9.25 2.12132 8.75 2.28798C6.75 3.48798 5.25 3.45465 4.75 3.28798C4.41667 3.12132 3.45 2.78798 2.25 2.78798C0.75 2.78798 1.75 3.28798 1.25 3.78798C0.85 4.18798 0.416667 4.95465 0.25 5.28798C0.25 5.62132 0.35 6.38798 0.75 6.78798C1.15 7.18798 1.25 7.95465 1.25 8.28798C1.25 8.62132 1.35 9.38798 1.75 9.78798C2.15 10.188 1.91667 11.6213 1.75 12.288C1.75 13.488 3.75 13.1213 4.75 12.788C5.41667 13.4547 6.55 14.888 5.75 15.288C4.95 15.688 4.41667 17.1213 4.25 17.788C4.25 18.1213 4.15 18.988 3.75 19.788C3.35 20.588 3.58333 21.1213 3.75 21.288C3.91667 21.6213 4.35 22.388 4.75 22.788C5.15 23.188 4.58333 24.9546 4.25 25.788C3.74999 26.1213 2.54997 26.988 1.74997 27.788C0.949966 28.588 1.0833 30.1213 1.24997 30.788C1.58331 31.1213 2.15 31.988 1.75 32.788Z" fill="#E69900" stroke="#E69900" stroke-width="0.5"/>
</svg>
