<svg width="378" height="223" viewBox="0 0 378 223" fill="none" xmlns="http://www.w3.org/2000/svg">
<path d="M1.37646 47.7984C2.56702 49.57 1.87253 50.997 1.37646 51.4891C1.04573 52.8423 0.582715 55.6225 1.37646 55.9177C2.17021 56.213 2.36857 59.2394 2.36854 60.7156C2.53389 61.5768 2.56696 63.5944 1.37641 64.7754C0.185853 65.9564 0.880342 66.9898 1.37641 67.3589C1.87247 67.6049 2.66617 68.4661 1.87247 69.9424C1.07877 71.4186 1.54176 72.7719 1.87247 73.264C2.20318 75.1093 2.66617 79.0215 1.87247 79.9072C1.07877 80.793 1.54176 82.4907 1.87247 83.2288C2.53389 83.844 3.55909 85.5909 2.36854 87.6577C1.17798 89.7244 1.54176 90.9793 1.87247 91.3484C2.36854 91.8404 3.06302 93.2675 1.87247 95.039C0.681917 96.8106 1.37641 98.7297 1.87247 99.4679C2.03783 101.067 2.17011 104.635 1.37641 106.111C0.582704 107.587 1.37641 108.941 1.87247 109.433C1.37641 110.294 0.582704 112.311 1.37641 113.492C2.17011 114.674 2.36854 115.953 2.36854 116.445C2.03783 118.044 1.57483 121.76 2.36854 123.826C3.16224 125.893 2.03783 129.362 1.37641 130.839C0.880342 133.053 0.185853 137.777 1.37641 138.958C2.56696 140.139 2.53389 144.371 2.36854 146.34C1.70712 147.57 0.78113 150.326 2.36854 151.507C3.95594 152.688 3.02995 155.443 2.36854 156.674C2.36854 157.781 2.17011 160.659 1.37643 163.317C0.58274 165.974 1.04572 167.13 1.37643 167.377C1.87248 167.746 2.66617 168.779 1.87247 169.96C1.07877 171.141 1.21107 172.667 1.37643 173.282C2.03785 173.774 2.96383 175.348 1.37643 177.71C-0.210978 180.073 0.715008 183.123 1.37643 184.354C2.2032 185.953 3.55911 189.299 2.36855 189.89C1.178 190.48 1.21107 193.826 1.37643 195.426C1.21107 196.041 0.979575 197.714 1.37643 199.486C1.77328 201.257 1.54178 203.176 1.37643 203.914C1.87249 205.022 2.66619 207.974 1.87249 210.927C1.07879 213.879 2.53391 215.602 3.36068 216.094C4.18746 216.34 6.33707 217.201 8.32132 218.677C10.3056 220.153 13.778 221.261 15.2662 221.63C17.2505 221.384 21.3182 220.965 21.715 221.261C22.1119 221.556 26.841 221.384 29.156 221.261C29.9828 221.138 32.2316 220.965 34.6127 221.261C36.9938 221.556 38.5812 221.384 39.0773 221.261C40.7308 221.015 44.3356 220.67 45.5261 221.261C46.7167 221.851 48.9986 221.507 49.9907 221.261C51.4789 221.63 54.8521 222.22 56.4395 221.63C58.0269 221.039 60.408 220.892 61.4002 220.892C63.5498 221.138 68.2458 221.482 69.8333 220.892C71.4207 220.301 75.1246 221.138 76.7781 221.63C77.6049 221.876 79.7545 222.22 81.7388 221.63C83.723 221.039 87.1955 220.892 88.6837 220.892C90.9986 221.261 96.0254 221.925 97.6128 221.63C99.2002 221.334 102.573 221.261 104.062 221.261C104.888 221.261 106.84 221.334 108.03 221.63C109.221 221.925 110.51 221.507 111.007 221.261C112.164 221.63 114.677 222.294 115.471 221.999C116.265 221.703 118.448 221.384 119.44 221.261C120.432 221.384 122.912 221.556 124.896 221.261C126.881 220.965 128.369 221.138 128.865 221.261C130.188 221.63 133.032 222.22 133.825 221.63C134.619 221.039 137.794 221.138 139.282 221.261C140.605 221.63 143.548 222.22 144.739 221.63C145.929 221.039 148.211 220.892 149.203 220.892C150.361 221.507 152.974 222.589 154.164 221.999C155.355 221.408 156.975 221.261 157.637 221.261C157.967 221.384 158.926 221.556 160.117 221.261C161.307 220.965 162.597 221.138 163.093 221.261C164.747 221.753 168.451 222.515 170.038 221.63C171.626 220.744 175.329 220.768 176.983 220.892C177.975 221.138 180.455 221.482 182.44 220.892C184.424 220.301 186.904 220.892 187.896 221.261C189.55 221.999 193.849 223.18 197.818 221.999C201.786 220.818 204.763 220.768 205.755 220.892C207.078 221.261 210.715 221.851 214.684 221.261C218.652 220.67 221.629 221.015 222.621 221.261C224.936 221.999 230.558 223.18 234.526 221.999C238.495 220.818 241.802 221.261 242.96 221.63C243.786 221.999 246.531 222.515 250.897 221.63C255.262 220.744 258.338 221.261 259.33 221.63C262.306 222.122 268.854 222.884 271.235 221.999C273.616 221.113 277.188 221.138 278.676 221.261C279.834 221.876 282.843 222.811 285.621 221.63C288.399 220.449 290.086 220.892 290.582 221.261C291.574 221.876 294.253 222.811 297.031 221.63C299.809 220.449 301.826 220.892 302.487 221.261C307.646 223.032 309.928 222.245 310.424 221.63C311.086 221.138 313.103 220.375 315.881 221.261C318.659 222.146 321.007 221.876 321.834 221.63C323.322 221.138 326.497 220.301 327.29 220.892C328.084 221.482 329.936 221.63 330.763 221.63C331.259 221.507 333.144 221.334 336.716 221.63C340.287 221.925 342.503 221.261 343.164 220.892C343.826 220.645 346.141 220.375 350.109 221.261C354.078 222.146 357.054 221.63 358.046 221.261H363.007C365.388 221.261 367.306 219.784 367.968 219.046C375.508 215.208 376.731 211.542 376.401 210.189C375.905 209.327 375.012 207.457 375.409 206.867C375.905 206.129 375.905 203.914 375.905 202.438V197.271C375.574 195.918 375.012 192.916 375.409 191.735C375.805 190.554 375.574 187.552 375.409 186.199C375.243 185.215 375.111 182.804 375.905 181.032C376.698 179.261 376.566 177.587 376.401 176.972C376.401 176.603 376.103 174.832 374.913 170.698C373.722 166.565 374.747 164.793 375.409 164.424C376.566 163.686 378.484 161.619 376.897 159.257C375.309 156.895 374.913 154.582 374.913 153.721C375.739 151.014 377.194 145.38 376.401 144.494C375.409 143.387 376.401 140.804 376.401 139.696C376.401 138.811 376.07 137.359 375.905 136.744V129.732C375.905 127.369 376.235 126.533 376.401 126.41C377.062 125.18 377.988 122.35 376.401 120.874C374.813 119.398 375.409 116.814 375.905 115.707C376.731 114.477 377.988 111.647 376.401 110.171C374.813 108.695 375.409 105.865 375.905 104.635C376.401 103.774 377.194 101.535 376.401 99.4679C375.607 97.4011 375.409 94.4239 375.409 93.1937C376.07 91.8404 377.095 88.9125 375.905 88.0267C374.714 87.141 375.409 83.967 375.905 82.4907C376.235 80.6454 376.698 76.807 375.905 76.2165C375.111 75.626 375.574 72.7719 375.905 71.4186C376.07 70.3114 376.302 67.8018 375.905 66.6207C375.508 65.4397 375.739 64.1603 375.905 63.6682C376.07 62.807 376.401 60.7156 376.401 59.2394C376.401 57.7631 375.739 56.1638 375.409 55.5487C375.409 54.4415 375.508 51.858 375.905 50.3817C376.302 48.9054 375.739 46.814 375.409 45.9529C375.739 45.2148 376.302 43.3694 375.905 41.8931C375.508 40.4169 375.739 38.3255 375.905 37.4643C376.235 35.865 376.698 32.445 375.905 31.5592C375.111 30.6734 375.905 28.9757 376.401 28.2376C376.897 26.8843 377.591 23.8826 376.401 22.7016C375.21 21.5205 375.905 19.503 376.401 18.6418C376.07 18.0267 375.607 16.2798 376.401 14.213C377.194 12.1462 376.07 10.6453 375.409 10.1532C374.417 9.16903 372.333 6.90541 371.936 5.72439C371.44 4.24811 366.976 1.66463 364.991 1.66463C363.404 1.66463 359.369 1.41858 357.55 1.29556C352.788 0.409795 348.952 1.17254 347.629 1.66463C346.472 2.0337 343.462 2.55039 340.684 1.66463C337.906 0.778864 335.558 1.04951 334.731 1.29556C332.912 2.15672 328.779 3.50997 326.794 2.0337C324.81 0.557423 320.015 0.680446 317.865 0.926492C316.873 1.17254 314.69 1.59082 313.897 1.29556C313.103 1.00031 308.936 0.926492 306.952 0.926492C304.802 1.17254 300.305 1.59082 299.511 1.29556C298.717 1.00031 296.204 1.17254 295.046 1.29556C293.393 1.66463 289.292 2.18133 286.117 1.29556C282.942 0.409795 278.842 0.926492 277.188 1.29556C276.527 1.66463 274.013 2.18133 269.251 1.29556C264.489 0.409795 261.975 0.926492 261.314 1.29556C259.495 1.78765 254.964 2.55039 251.393 1.66463C247.821 0.778864 245.605 0.803469 244.944 0.926492C243.125 1.17254 239.09 1.66463 237.503 1.66463C235.519 1.66463 234.526 1.66463 231.55 0.926492C229.169 0.335982 222.621 0.926492 219.645 1.29556C217.991 1.17254 214.188 0.926492 212.204 0.926492C210.219 0.926492 209.062 1.41858 208.731 1.66463C207.574 1.41858 204.862 1.00031 203.274 1.29556C201.687 1.59082 198.314 1.91068 196.826 2.0337C195.833 1.78765 192.659 1.36937 187.896 1.66463C183.134 1.95989 179.629 1.54161 178.471 1.29556C177.479 1.54161 175.098 1.88607 173.511 1.29556C171.923 0.70505 170.865 1.04951 170.534 1.29555C169.377 1.78765 166.566 2.47658 164.581 1.29555C162.597 0.114521 159.786 0.803455 158.629 1.29555C156.479 1.17253 151.287 0.852667 147.715 0.557412C144.144 0.262157 137.298 1.17253 134.322 1.66462C132.833 1.91066 129.063 2.18132 125.888 1.29555C122.714 0.409785 118.282 1.17253 116.463 1.66462C112.991 2.03369 105.55 2.55038 103.566 1.66462C101.581 0.778854 96.7861 1.0495 94.6364 1.29555C93.6443 1.41862 90.5687 1.59092 86.2034 1.29555C81.838 1.00018 78.4317 1.41852 77.2742 1.66462C75.4553 2.27976 70.5277 3.14099 65.3687 1.66476C60.2096 0.188533 55.6127 0.557538 53.9592 0.926569C52.3057 1.5417 48.2049 2.55053 45.0301 1.66476C41.8552 0.778998 38.0852 0.803602 36.597 0.926625C35.4395 1.29571 32.5292 1.88626 30.1481 1.29575C27.767 0.705235 24.1954 1.0497 22.7072 1.29575C21.5497 1.41877 18.6395 1.591 16.2583 1.29575C13.8772 1.00049 10.3056 2.15691 8.81739 2.77202C8.15597 3.14109 6.33707 4.39593 4.35281 6.46271C2.36855 8.5295 2.2032 10.7685 2.36855 11.6297C1.70714 12.7369 0.582731 15.2465 1.37646 16.4276C2.17019 17.6086 2.36858 20.3643 2.36855 21.5945C1.87249 22.5787 0.979582 24.7685 1.37646 25.6543C1.77334 26.5401 2.20322 28.4838 2.36855 29.345C1.70714 30.2061 0.681937 32.2975 1.87249 33.7738C3.06304 35.2501 1.70714 37.5875 0.880362 38.5717C1.21108 39.3098 1.77331 41.3028 1.37646 43.3696C0.97961 45.4364 1.21111 47.1833 1.37646 47.7984Z" fill="#F1E5CF" stroke="#F1E5CF"/>
</svg>
