<svg width="378" height="341" viewBox="0 0 378 341" fill="none" xmlns="http://www.w3.org/2000/svg">
<path d="M1.37652 72.9394C2.56708 75.6526 1.87259 77.8382 1.37652 78.5918C1.0458 80.6643 0.582776 84.9222 1.37652 85.3744C2.17027 85.8266 2.36863 90.4616 2.3686 92.7225C2.53395 94.0414 2.56702 97.1314 1.37647 98.9402C0.185914 100.749 0.880403 102.332 1.37647 102.897C1.87253 103.274 2.66623 104.593 1.87253 106.854C1.07883 109.115 1.54182 111.187 1.87253 111.941C2.20324 114.767 2.66623 120.758 1.87253 122.115C1.07883 123.472 1.54182 126.072 1.87253 127.202C2.53395 128.144 3.55915 130.82 2.3686 133.985C1.17804 137.15 1.54182 139.072 1.87253 139.637C2.3686 140.391 3.06309 142.577 1.87253 145.29C0.681978 148.003 1.37647 150.942 1.87253 152.073C2.03789 154.522 2.17017 159.986 1.37647 162.247C0.582765 164.508 1.37647 166.581 1.87253 167.334C1.37647 168.653 0.582765 171.743 1.37647 173.552C2.17017 175.361 2.3686 177.32 2.3686 178.074C2.03789 180.523 1.57489 186.213 2.3686 189.379C3.1623 192.544 2.03789 197.857 1.37647 200.118C0.880403 203.51 0.185914 210.745 1.37647 212.554C2.56702 214.362 2.53395 220.844 2.3686 223.858C1.70718 225.742 0.781191 229.963 2.3686 231.772C3.956 233.58 3.03001 237.801 2.3686 239.685C2.3686 241.381 2.17017 245.79 1.37649 249.859C0.582801 253.929 1.04579 255.7 1.37649 256.077C1.87255 256.642 2.66623 258.225 1.87253 260.034C1.07883 261.842 1.21113 264.179 1.37649 265.121C2.03791 265.875 2.96389 268.286 1.37649 271.904C-0.210917 275.521 0.715069 280.194 1.37649 282.078C2.20326 284.527 3.55917 289.652 2.36862 290.557C1.17806 291.461 1.21113 296.586 1.37649 299.035C1.21113 299.977 0.979636 302.54 1.37649 305.253C1.77334 307.966 1.54184 310.905 1.37649 312.036C1.87255 313.732 2.66625 318.254 1.87255 322.775C1.07885 327.297 2.53397 329.935 3.36074 330.689C4.18752 331.066 6.33713 332.385 8.32138 334.645C10.3056 336.906 13.7781 338.602 15.2663 339.167C17.2505 338.791 21.3183 338.15 21.7151 338.602C22.112 339.054 26.8411 338.791 29.1561 338.602C29.9828 338.414 32.2317 338.15 34.6128 338.602C36.9939 339.054 38.5813 338.791 39.0773 338.602C40.7309 338.225 44.3356 337.698 45.5262 338.602C46.7167 339.507 48.9986 338.979 49.9908 338.602C51.4789 339.167 54.8522 340.072 56.4396 339.167C58.027 338.263 60.4081 338.037 61.4002 338.037C63.5498 338.414 68.2459 338.941 69.8333 338.037C71.4207 337.133 75.1247 338.414 76.7782 339.167C77.605 339.544 79.7546 340.072 81.7388 339.167C83.7231 338.263 87.1955 338.037 88.6837 338.037C90.9987 338.602 96.0255 339.62 97.6129 339.167C99.2003 338.715 102.574 338.602 104.062 338.602C104.888 338.602 106.84 338.715 108.03 339.167C109.221 339.62 110.511 338.979 111.007 338.602C112.164 339.167 114.677 340.185 115.471 339.733C116.265 339.28 118.448 338.791 119.44 338.602C120.432 338.791 122.912 339.054 124.896 338.602C126.881 338.15 128.369 338.414 128.865 338.602C130.188 339.167 133.032 340.072 133.826 339.167C134.619 338.263 137.794 338.414 139.282 338.602C140.605 339.167 143.548 340.072 144.739 339.167C145.93 338.263 148.211 338.037 149.204 338.037C150.361 338.979 152.974 340.637 154.164 339.733C155.355 338.828 156.975 338.602 157.637 338.602C157.967 338.791 158.926 339.054 160.117 338.602C161.307 338.15 162.597 338.414 163.093 338.602C164.747 339.356 168.451 340.524 170.038 339.167C171.626 337.811 175.33 337.849 176.983 338.037C177.975 338.414 180.456 338.941 182.44 338.037C184.424 337.133 186.904 338.037 187.897 338.602C189.55 339.733 193.849 341.541 197.818 339.733C201.786 337.924 204.763 337.849 205.755 338.037C207.078 338.602 210.715 339.507 214.684 338.602C218.652 337.698 221.629 338.225 222.621 338.602C224.936 339.733 230.558 341.541 234.527 339.733C238.495 337.924 241.802 338.602 242.96 339.167C243.786 339.733 246.531 340.524 250.897 339.167C255.262 337.811 258.338 338.602 259.33 339.167C262.306 339.921 268.854 341.089 271.235 339.733C273.616 338.376 277.188 338.414 278.676 338.602C279.834 339.544 282.843 340.976 285.621 339.167C288.399 337.359 290.086 338.037 290.582 338.602C291.574 339.544 294.253 340.976 297.031 339.167C299.809 337.359 301.826 338.037 302.487 338.602C307.646 341.315 309.928 340.109 310.424 339.167C311.086 338.414 313.103 337.246 315.881 338.602C318.659 339.959 321.007 339.544 321.834 339.167C323.322 338.414 326.497 337.133 327.29 338.037C328.084 338.941 329.936 339.167 330.763 339.167C331.259 338.979 333.144 338.715 336.716 339.167C340.287 339.62 342.503 338.602 343.165 338.037C343.826 337.66 346.141 337.246 350.109 338.602C354.078 339.959 357.054 339.167 358.046 338.602H363.007C365.388 338.602 367.306 336.341 367.968 335.211C375.508 329.332 376.732 323.717 376.401 321.645C375.905 320.326 375.012 317.462 375.409 316.558C375.905 315.427 375.905 312.036 375.905 309.775V301.862C375.574 299.789 375.012 295.192 375.409 293.383C375.806 291.574 375.574 286.977 375.409 284.904C375.243 283.397 375.111 279.704 375.905 276.991C376.698 274.278 376.566 271.715 376.401 270.773C376.401 270.208 376.103 267.495 374.913 261.164C373.722 254.834 374.747 252.12 375.409 251.555C376.566 250.425 378.484 247.259 376.897 243.642C375.309 240.024 374.913 236.482 374.913 235.163C375.739 231.018 377.195 222.389 376.401 221.032C375.409 219.336 376.401 215.38 376.401 213.684C376.401 212.327 376.07 210.104 375.905 209.162V198.423C375.905 194.805 376.235 193.524 376.401 193.335C377.062 191.451 377.988 187.118 376.401 184.857C374.813 182.596 375.409 178.639 375.905 176.943C376.732 175.059 377.988 170.726 376.401 168.465C374.813 166.204 375.409 161.87 375.905 159.986C376.401 158.667 377.195 155.238 376.401 152.073C375.607 148.907 375.409 144.348 375.409 142.464C376.07 140.391 377.095 135.907 375.905 134.55C374.714 133.194 375.409 128.333 375.905 126.072C376.235 123.246 376.698 117.367 375.905 116.463C375.111 115.558 375.574 111.187 375.905 109.115C376.07 107.419 376.302 103.575 375.905 101.766C375.508 99.9576 375.739 97.9981 375.905 97.2445C376.07 95.9256 376.401 92.7225 376.401 90.4616C376.401 88.2006 375.739 85.7512 375.409 84.8092C375.409 83.1134 375.508 79.1568 375.905 76.8958C376.302 74.6348 375.739 71.4318 375.409 70.1129C375.739 68.9824 376.302 66.1562 375.905 63.8953C375.508 61.6343 375.739 58.4313 375.905 57.1124C376.235 54.663 376.698 49.4251 375.905 48.0685C375.111 46.7119 375.905 44.1118 376.401 42.9814C376.897 40.9088 377.591 36.3115 376.401 34.5028C375.21 32.694 375.905 29.604 376.401 28.2851C376.07 27.343 375.607 24.6676 376.401 21.5022C377.195 18.3369 376.07 16.0382 375.409 15.2846C374.417 13.7773 372.333 10.3105 371.936 8.50169C371.44 6.24072 366.976 2.28404 364.991 2.28404C363.404 2.28404 359.369 1.90721 357.55 1.7188C352.788 0.362223 348.952 1.53039 347.629 2.28404C346.472 2.84928 343.462 3.64062 340.684 2.28404C337.906 0.927463 335.558 1.34197 334.731 1.7188C332.913 3.03769 328.779 5.11024 326.794 2.84928C324.81 0.588319 320.015 0.776732 317.865 1.15356C316.873 1.53039 314.69 2.17099 313.897 1.7188C313.103 1.26661 308.936 1.15356 306.952 1.15356C304.802 1.53039 300.305 2.17099 299.511 1.7188C298.717 1.26661 296.204 1.53039 295.046 1.7188C293.393 2.28404 289.292 3.07538 286.117 1.7188C282.942 0.362223 278.842 1.15356 277.188 1.7188C276.527 2.28404 274.013 3.07538 269.251 1.7188C264.489 0.362223 261.975 1.15356 261.314 1.7188C259.495 2.47245 254.964 3.64062 251.393 2.28404C247.821 0.927463 245.605 0.965146 244.944 1.15356C243.125 1.53039 239.09 2.28404 237.503 2.28404C235.519 2.28404 234.527 2.28404 231.55 1.15356C229.169 0.249174 222.621 1.15356 219.645 1.7188C217.991 1.53039 214.188 1.15356 212.204 1.15356C210.219 1.15356 209.062 1.90721 208.731 2.28404C207.574 1.90721 204.862 1.26661 203.275 1.7188C201.687 2.17099 198.314 2.66087 196.826 2.84928C195.834 2.47245 192.659 1.83184 187.897 2.28404C183.134 2.73625 179.629 2.09563 178.471 1.7188C177.479 2.09563 175.098 2.62318 173.511 1.7188C171.923 0.814415 170.865 1.34196 170.534 1.71878C169.377 2.47244 166.566 3.52757 164.582 1.71878C162.597 -0.0899986 159.786 0.965124 158.629 1.71878C156.479 1.53037 151.287 1.0405 147.715 0.588303C144.144 0.13611 137.298 1.53037 134.322 2.28402C132.833 2.66085 129.063 3.07536 125.889 1.71878C122.714 0.362207 118.282 1.53037 116.463 2.28402C112.991 2.84927 105.55 3.6406 103.566 2.28402C101.581 0.927447 96.7861 1.34196 94.6365 1.71878C93.6444 1.90727 90.5688 2.17115 86.2034 1.71878C81.8381 1.26641 78.4318 1.90712 77.2743 2.28402C75.4554 3.22614 70.5278 4.54514 65.3687 2.28425C60.2097 0.0233517 55.6128 0.588495 53.9593 1.15368C52.3057 2.09577 48.2049 3.64082 45.0301 2.28425C41.8553 0.927668 38.0852 0.965351 36.597 1.15376C35.4395 1.71903 32.5293 2.62348 30.1482 1.71909C27.7671 0.814698 24.1954 1.34226 22.7072 1.71909C21.5498 1.9075 18.6395 2.17128 16.2584 1.71909C13.8773 1.2669 10.3056 3.03798 8.81745 3.98005C8.15603 4.54529 6.33713 6.46711 4.35287 9.63246C2.36862 12.7978 2.20326 16.2269 2.36862 17.5458C1.7072 19.2415 0.582792 23.0852 1.37652 24.8939C2.17025 26.7027 2.36864 30.9232 2.36862 32.8073C1.87255 34.3146 0.979643 37.6684 1.37652 39.025C1.7734 40.3815 2.20328 43.3585 2.36862 44.6774C1.7072 45.9963 0.681998 49.1993 1.87255 51.4603C3.06311 53.7212 1.7072 57.3011 0.880423 58.8084C1.21115 59.9389 1.77337 62.9912 1.37652 66.1565C0.979671 69.3219 1.21117 71.9973 1.37652 72.9394Z" fill="#F1E5CF" stroke="#F1E5CF"/>
</svg>
