<svg width="3" height="458" viewBox="0 0 3 458" fill="none" xmlns="http://www.w3.org/2000/svg">
<path d="M2.98475 4.36247C3.02382 6.92898 2.98204 10.2933 2.92469 12.8501C2.9069 13.6514 2.82739 13.2456 2.81153 13.7987C2.78061 14.8806 2.81961 15.8885 2.78278 16.9576C2.77019 17.3119 2.64424 16.8708 2.63392 17.2424C2.57825 19.2782 2.61033 21.2042 2.58356 23.2665C2.45147 33.4248 2.40419 43.4102 2.34681 53.6928C2.32799 57.0833 2.21369 61.2048 2.26368 64.7068C2.26962 65.1156 2.38017 64.8719 2.38929 64.9496C2.52877 66.1696 2.3056 65.7639 2.27594 66.5605C2.15887 69.7219 2.14868 73.2374 2.19135 76.2798C2.20982 77.5742 2.4294 76.2764 2.30616 77.5797C2.29783 77.6702 2.18043 77.3417 2.16791 77.6967C2.13975 78.5017 2.16073 80.029 2.15143 80.6529C2.13291 81.8552 2.13409 82.0542 2.13275 83.1915C2.1299 84.7462 2.07155 86.5953 2.09815 88.2634C2.10417 88.6194 2.22452 88.1481 2.245 88.7159C2.26544 89.2843 2.25524 90.7878 2.22687 91.2947C2.19849 91.8017 2.1039 91.5858 2.08222 91.6755C1.89922 92.4137 2.15267 94.1529 2.15894 94.3766C2.26574 98.4567 2.12136 101.956 2.12177 105.785C2.12239 108.693 2.17005 111.802 2.16351 114.568C2.15526 117.864 2.09005 120.658 2.10126 123.86C2.1023 124.197 2.2438 123.801 2.24536 124.214C2.26183 128.599 2.2464 132.953 2.15088 137.319C2.14118 137.757 2.01694 137.193 1.99982 137.63C1.89772 140.309 1.65246 144.547 2.19336 146.137C2.17224 147.951 2.15042 150.154 2.04138 151.777C1.97121 152.823 1.83587 151.807 1.89362 153.093C1.90648 153.382 2.02501 153.005 2.03534 153.44C2.07873 155.271 2.0402 157.271 2.10144 159.082C2.11418 159.45 2.22038 159.349 2.2395 159.454C2.39438 160.331 2.13835 161.791 2.11975 162.11C1.98102 164.533 2.03561 166.304 2.03223 168.562C2.03138 169.086 2.17403 168.466 2.17834 168.971C2.19879 171.586 2.18653 174.295 2.12323 176.855C2.10881 177.425 1.98729 176.901 1.97418 177.173C1.91786 178.373 2.14737 178.64 2.09778 179.791C2.08762 180.033 1.98359 179.896 1.97217 179.941C1.79283 180.634 2.04694 181.235 2.05255 181.414C2.12921 183.668 1.86392 185.108 1.90149 187.286C1.90625 187.546 2.03787 186.959 2.04321 187.691C2.07955 192.569 2.04339 197.729 1.93811 202.557C1.92192 203.308 1.82304 202.772 1.81085 202.82C1.6204 203.59 1.87558 204.088 1.88519 204.333C1.95437 206.264 1.74037 208.068 2.04431 209.38C1.93883 217.559 2.10951 225.701 1.83722 233.812C1.83406 233.915 1.70839 233.73 1.70263 233.936C1.63207 236.414 1.82739 235.938 2.06628 237.577C2.12627 237.99 1.83785 239.246 1.81671 239.357C1.7388 239.762 1.55183 239.342 1.53674 239.478C1.41827 240.6 2.0366 240.417 2.0368 241.931C2.03577 241.978 1.92196 241.779 1.91064 241.906C1.87511 242.301 1.92034 242.693 1.88116 243.079C1.79051 243.963 1.49005 244.278 1.66491 245.628C1.68761 245.799 2.03835 245.538 2.02179 246.889C2.01488 247.428 2.02089 249.813 1.99817 250.481C1.97546 251.149 1.86244 250.691 1.85754 250.738C1.70808 252.537 1.64614 251.855 1.42486 252.756C1.20442 253.657 1.73019 253.407 1.78888 253.775C1.84739 254.143 1.72408 255.462 1.68121 255.786C1.63832 256.11 1.5665 255.706 1.54223 255.994C1.38367 257.903 1.80321 256.832 1.88665 257.461C2.08424 258.945 1.69433 260.1 1.65612 261.459C1.64581 261.826 1.73461 261.526 1.74292 261.853C1.77463 263.15 1.65297 263.929 1.76452 265.404C1.7827 265.645 2.01713 266.837 1.84509 267.609C1.82028 267.718 1.72312 267.407 1.70135 267.96C1.66869 268.785 1.64745 270.272 1.67993 271.159C1.70396 271.814 1.86406 271.063 1.81433 271.887C1.79212 272.254 1.69846 271.575 1.66455 272.263C1.63065 272.948 1.63476 274.698 1.638 275.364C1.6413 276.029 1.76275 275.665 1.77093 275.719C1.8178 276.044 1.87636 277.32 1.87622 277.433C1.89104 283.12 1.68633 288.365 1.75408 293.903C1.75923 294.338 1.88729 294.048 1.8894 294.114C1.94306 295.602 1.60255 294.429 1.48858 295.468C1.74847 295.318 1.70141 295.932 1.72991 296.98C1.74386 297.485 1.84449 297.21 1.85479 297.256C2.00764 298.005 1.81022 298.526 1.76983 298.66C1.62127 299.156 1.79681 299.696 1.6975 300.034C1.59895 300.371 1.45284 299.595 1.45471 300.6C1.54774 300.882 1.79085 300.135 1.83026 300.898C1.9793 303.778 1.78855 309.152 1.76873 311.467C1.74893 313.777 1.7661 314.523 1.73248 315.87C1.67169 318.301 1.85206 317.41 1.93462 318.92C2.01718 320.434 1.57337 319.698 1.47796 319.916C1.3826 320.13 1.48076 320.363 1.42834 320.629C1.37593 320.894 1.31106 320.32 1.29138 320.943C1.27172 321.567 1.44137 323.271 1.54113 323.492C1.75248 323.96 1.9743 323.191 1.89636 324.841C1.89173 324.936 1.77503 324.628 1.76324 324.991C1.6734 327.877 1.66783 330.875 1.58837 333.757C1.57726 334.153 1.44744 333.799 1.43951 334.029C1.35647 336.432 1.57537 335.573 1.81854 336.889C1.49493 336.594 1.29695 337.322 1.29504 339.145C1.29378 340.241 1.43511 340.052 1.53472 340.761C1.56475 340.974 1.46771 341.749 1.53417 341.89C1.75145 342.353 1.99467 341.623 1.89782 343.502C1.89322 343.585 1.77429 343.322 1.76708 343.607C1.71994 345.449 1.9472 345.669 1.97472 347.661C1.99632 349.221 1.85774 351.997 1.8352 353.774C1.47137 353.736 1.55468 355.415 1.80553 356.096C1.79526 357.249 1.80945 358.495 1.77477 359.609C1.76295 359.993 1.65761 359.741 1.64623 359.789C1.46769 360.531 1.71174 361.032 1.72131 361.281C1.81431 363.979 1.62934 366.177 1.81011 368.752C1.81662 368.843 2.06935 368.991 1.88482 369.68C1.8721 369.724 1.75711 368.874 1.74822 370.085C1.73931 371.296 1.60383 373.58 1.72094 375.262C1.74913 375.669 1.95429 376.698 1.794 377.524C1.77223 377.634 1.69975 377.514 1.65942 377.673C1.5309 378.186 1.78634 378.467 1.56933 379.07C1.35233 379.674 1.18981 380.93 1.33953 382.626C1.34388 382.68 1.54635 383.081 1.54314 383.615C1.53786 384.466 1.49568 385.675 1.497 386.564C1.49771 386.99 1.62342 386.717 1.62572 386.791C1.69617 389.653 1.58409 391.69 1.53545 394.756C1.52629 395.318 1.69772 396.934 1.56219 398.022C1.41381 399.217 0.796613 397.989 0.943658 400.735C1.00247 401.843 1.7855 403.245 1.37981 405.236C1.48034 409.096 1.27271 412.666 1.41625 416.538C1.42261 416.712 1.64115 417.262 1.63817 417.672C1.63334 418.279 1.53119 418.613 1.52447 419.047C1.4937 420.865 1.58109 422.528 1.56749 424.281C1.56256 424.947 1.45694 424.714 1.45104 425.508C1.44524 426.301 1.58431 426.83 1.51714 427.905C1.46594 428.717 1.18168 429.528 1.14855 430.606C1.42894 430.647 1.42317 431.387 1.49718 432.702C1.51154 432.955 1.60913 432.684 1.62096 432.804C1.67126 433.29 1.59038 433.741 1.64513 434.203C1.65828 434.316 1.75404 434.321 1.77019 434.413C1.91121 435.194 1.69582 436.482 1.65831 436.703C1.51589 437.551 1.64043 437.947 1.58434 438.597C1.52826 439.246 1.45815 438.276 1.42412 439.034C1.35373 440.606 1.3692 442.625 1.3648 444.221C1.36363 444.858 1.49145 444.424 1.49425 444.515C1.52667 445.832 1.39071 447.163 1.64531 447.894C0.986999 448.807 1.70917 448.688 1.57738 450.57C1.56672 450.719 1.25541 450.907 1.20971 450.338C1.16405 449.769 1.26136 448.905 1.19011 448.116C1.1734 447.928 0.881676 446.857 0.864005 446.711C0.7259 445.566 1.19111 445.403 1.21667 445.343C1.49241 444.656 1.17814 443.346 1.15642 443.002C1.05692 441.424 1.12235 440.084 1.05132 438.765C1.00542 437.902 0.700686 437.818 0.710014 437.14C0.740844 434.888 1.16595 434.101 0.797355 431.979C0.718742 431.524 0.385679 431.976 0.647576 430.345C0.664086 430.243 0.903674 429.032 0.752129 428.333C0.733021 428.245 0.635955 428.248 0.6278 428.132C0.575056 427.355 0.652385 426.837 0.615349 425.992C0.578313 425.146 0.523101 424.129 0.556024 423.163C0.57571 422.581 0.756559 421.834 0.800835 421.556C0.928383 420.769 0.719258 419.925 0.873711 419.438C1.02894 418.947 1.26468 419.907 1.36498 418.619C1.1128 418.571 0.853952 418.461 0.600335 418.385C0.609214 415.56 0.690761 412.781 0.67962 409.948C0.677986 409.596 0.54241 409.956 0.537164 409.579C0.515626 407.99 0.612274 406.602 0.573786 404.954C0.543475 403.679 0.399929 402.28 0.363764 400.946C0.652336 400.132 0.554373 398.153 0.580744 396.715C0.589856 396.211 0.666928 396.245 0.692072 395.887C0.785064 394.536 0.530055 395.169 0.489924 394.798C0.318649 393.209 0.895847 393.073 0.881585 391.199C0.881025 391.1 0.573354 389.886 0.554194 389.719C0.429257 388.657 0.661283 389.544 0.684015 388.879C0.725558 387.665 0.799035 386.822 0.708918 385.399C0.682225 384.984 0.490457 383.988 0.638789 383.182C0.658212 383.075 0.759908 383.134 0.765864 383.049C0.865139 381.504 0.545595 381.463 0.437373 380.58C0.329175 379.697 0.549762 378.333 0.613337 378.055C0.777804 377.329 0.683624 378.612 0.699763 378.651C0.891833 379.113 0.858765 378.118 0.874994 377.358C1.18831 377.248 1.1695 376.185 0.890558 376.57C0.86009 376.614 0.889308 377.206 0.874994 377.358C0.567588 376.691 0.528218 375.523 0.815485 374.233C0.950123 373.629 1.1071 374.2 1.04968 372.365C1.02375 371.532 0.808018 371.854 0.749201 371.119C0.615005 369.441 0.816249 367.259 0.784541 365.528C0.773029 364.9 0.654938 365.512 0.643001 365.083C0.610954 363.944 0.69956 362.939 0.65417 361.795C0.649908 361.691 0.526291 361.944 0.524715 361.589C0.510359 358.891 0.589537 356.543 0.591732 353.727C0.592736 352.366 0.524558 349.933 0.538266 348.524C0.561293 346.081 0.741053 343.075 0.697384 340.988C0.669431 339.627 0.545788 339.926 0.461545 339.342C0.298247 338.217 0.590751 336.225 0.636044 335.956C0.637543 335.948 0.666691 337.12 0.73016 336.495C0.862409 336.131 0.636618 335.97 0.636044 335.956C0.665304 335.78 0.693371 333.44 0.669736 332.976C0.656819 332.723 0.539674 332.865 0.535154 332.733C0.43032 329.604 0.400547 326.47 0.45532 323.297C0.457687 323.241 0.58872 323.325 0.592649 323.194C0.65091 321.357 0.490615 320.18 0.395445 318.665C0.300318 317.15 0.332179 315.949 0.557127 315.052C0.528804 313.909 0.628253 312.269 0.688596 311.325C0.748938 310.382 0.493871 310.25 0.488829 310.167C0.327436 307.577 0.473432 306.08 0.496153 303.393C0.507393 302.116 0.470396 299.582 0.442504 298.199C0.420034 297.106 0.47981 296.448 0.441589 295.44C0.436484 295.304 0.322915 295.442 0.318542 295.4C0.182663 294.276 0.460301 294.816 0.509887 294.584C0.690205 293.743 0.786241 293.223 0.701415 291.784C0.681988 291.452 0.282229 290.484 0.25885 289.879C0.229188 289.092 0.372478 289.389 0.337768 288.565C0.334929 288.495 0.24653 288.51 0.250427 288.001C0.267358 285.641 0.318796 283.067 0.309937 280.614C0.309066 280.279 0.168851 280.709 0.165284 280.225C0.148663 277.953 0.153853 275.463 0.219483 273.25C0.236079 272.705 0.334254 273.047 0.363404 272.929C0.539781 272.203 0.283509 271.173 0.278626 271.003C0.155474 266.951 0.387398 263.85 0.276979 259.72C0.270497 259.495 -0.00423204 257.765 0.231386 256.993C0.247062 256.94 0.488123 256.176 0.323305 255.501C0.312994 255.459 0.188891 255.935 0.20154 255.104C0.214161 254.274 0.131286 252.937 0.267641 251.795C0.310595 251.434 0.551061 250.579 0.359376 249.501C0.345995 249.431 -0.0874313 247.766 0.211611 247.172C0.260836 247.076 0.577291 247.177 0.415041 245.89C0.383585 245.644 0.312999 246.09 0.268923 245.443C0.200992 244.45 0.285749 243.135 0.144778 241.915C0.119821 241.702 -0.0949694 240.797 0.068057 240.07C0.0935898 239.956 0.199239 240.173 0.211062 239.789C0.267776 237.964 0.197108 236.054 0.270205 234.202C0.29589 233.545 0.466683 233.881 0.512453 233.197C0.558207 232.513 0.60222 231.135 0.524172 230.419C0.446089 229.703 0.173885 230.485 0.152103 229.413C0.0575015 224.75 0.217184 220.131 0.240543 215.476C0.244032 214.785 0.146628 215.358 0.144779 214.34C0.137533 210.588 0.0462072 204.111 0.253178 200.856C0.41895 198.247 0.545154 201.53 0.612613 199.537C0.644793 198.575 0.328326 197.534 0.318363 197.302C0.217158 195.034 0.357346 193.458 0.314335 191.416C0.30541 190.994 0.177143 191.408 0.170964 191.049C0.14872 189.824 0.205972 188.535 0.1955 187.364C0.190507 186.839 0.0925416 186.936 0.100103 186.452C0.117066 185.296 0.158246 184.273 0.250066 183.145C0.258433 183.042 0.380298 183.735 0.384831 182.879C0.391821 181.494 0.4824 179.775 0.388859 178.181C0.360721 177.709 0.136822 177.69 0.291448 176.674C0.323743 176.46 0.592596 176.732 0.360295 175.548C0.321692 175.349 0.00836159 173.361 0.210332 172.384C0.263489 172.127 0.483493 171.47 0.448918 170.901C0.443401 170.824 0.323137 171.133 0.311406 170.662C0.272157 169.001 0.284988 167.261 0.24732 165.555C0.237023 165.099 0.112574 165.778 0.101202 165.099C0.0697467 163.232 0.101434 160.901 0.140387 159.075C0.154985 158.402 0.258074 158.867 0.269293 158.818C0.451768 158.03 0.205469 157.565 0.191107 157.303C0.105112 155.677 0.220808 154.439 0.190192 152.941C0.182055 152.527 0.0646166 152.82 0.0541449 152.738C-0.0481709 151.884 0.162733 152.52 0.18598 151.98C0.251807 150.466 0.242369 148.778 0.227362 147.247C0.221678 146.684 0.0855053 147.316 0.0819771 146.812C0.0585124 143.824 0.0715427 140.719 0.146614 137.803C0.160996 137.254 0.265852 137.6 0.289802 137.485C0.457359 136.697 0.228809 135.541 0.207038 135.275C0.107632 134.066 0.200359 133.597 0.183052 132.529C0.0968796 127.313 0.158294 120.872 0.196236 115.948C0.245067 109.532 0.344819 104.554 0.318917 98.4352C0.317402 98.0463 0.17791 98.4384 0.174813 98.1032C0.141187 93.7753 0.195694 89.5145 0.155405 85.1779C0.152346 84.8221 0.0201068 85.335 0.010752 84.7639C-0.00936323 83.5923 -0.0021755 82.1082 0.0400489 80.9237C0.0603937 80.3459 0.173867 81.1209 0.192026 80.5393C0.234569 79.1851 0.243988 77.7336 0.222788 76.3427C0.213478 75.7508 0.0782311 76.6438 0.0766701 75.8744C0.0632528 70.6336 0.03996 65.4865 0.215098 60.1904C0.227127 59.8273 0.502002 59.5088 0.449289 58.7368C0.373004 58.6787 0.283269 58.6818 0.201732 58.6564C0.157809 51.0271 0.2531 43.4756 0.267833 35.8249C0.268423 35.5023 0.12278 36.0598 0.123181 35.4353C0.125334 31.8207 0.0849867 28.3108 0.229748 24.6135C0.243905 24.2467 0.500127 24.4349 0.461376 23.3538C0.454305 23.1632 0.420134 21.535 0.364513 21.114C0.356124 21.0568 0.23653 21.3539 0.233044 20.8292C0.214884 17.7803 0.242187 14.5851 0.315259 11.5415C0.327281 11.0502 0.454638 11.5733 0.464306 11.2235C0.531913 8.74164 0.435098 6.04212 0.550732 3.67061C0.628591 2.08321 0.848739 2.67091 1.06544 1.82738C1.09601 1.70807 1.10086 0.725105 1.22694 0.674273C1.54398 0.543771 1.89114 1.01989 2.22907 0.824527C2.30186 0.783252 2.22346 -0.533197 2.39936 0.246225C2.41113 0.300676 2.46951 1.25511 2.52918 1.49018C2.57044 1.65385 2.69866 1.35892 2.75147 1.69285C2.80423 2.02676 2.69675 2.39368 2.75879 2.9473C2.82161 3.50066 2.96748 3.25734 2.98475 4.36247ZM0.95831 307.076C1.0808 306.203 0.632161 306.074 0.7395 307.019C0.74522 307.064 0.952301 307.121 0.95831 307.076ZM1.02917 412.797C1.22705 411.655 0.936083 410.873 0.783257 411.679C0.630595 412.485 0.969181 413.145 1.02917 412.797ZM1.17364 424.643C1.32966 423.308 0.693466 423.097 0.822075 424.527C0.829342 424.611 1.16458 424.721 1.17364 424.643ZM1.12715 5.73922C1.1331 5.72715 1.13891 5.02056 1.13301 5.00367C0.990518 4.62742 0.979005 6.04033 1.12715 5.73922ZM1.33092 436.397C1.41698 435.981 1.31764 434.781 1.21062 435.299C1.12453 435.715 1.22387 436.917 1.33092 436.397ZM1.43713 261.495C1.44382 261.482 1.44984 260.975 1.41205 260.985C1.29033 261.019 1.32468 261.725 1.43713 261.495ZM1.33825 456.376C1.36219 453.424 1.88772 451.635 1.82842 454.849C1.81769 455.431 1.66083 453.594 1.61345 454.335C1.52714 455.691 1.8571 456.591 1.68029 457.975C1.64792 458.225 1.33571 456.544 1.33751 456.371C1.33776 456.373 1.338 456.374 1.33825 456.376ZM1.49719 306.573C1.50312 306.556 1.50875 305.854 1.50286 305.838C1.36043 305.458 1.34902 306.87 1.49719 306.573ZM1.71454 231.936C1.72718 231.897 1.739 230.269 1.72735 230.216C1.49444 229.367 1.46985 232.658 1.71454 231.936ZM1.82549 353.802C1.96878 354.567 1.98565 355.482 1.80572 356.092C1.81527 355.332 1.81668 354.566 1.82549 353.802Z" fill="#E69900"/>
</svg>
