<svg width="97" height="3" viewBox="0 0 97 3" fill="none" xmlns="http://www.w3.org/2000/svg">
<path d="M54.3337 0.569676C56.4747 0.769152 58.1601 -0.112497 60.7696 0.0121197C63.3792 0.136738 63.77 0.604405 66.7586 0.49918C69.747 0.393975 72.7372 0.713844 74.0678 0.521701C75.3984 0.329502 75.5389 0.910589 77.4285 0.781527C79.318 0.652483 80.4632 0.728332 82.1157 0.917208C83.7683 1.10609 88.8454 1.26734 90.6915 1.03531C92.5377 0.803284 94.6434 1.20588 95.9097 1.30136C96.3042 1.3311 96.6146 1.37181 96.8526 1.41415C96.9534 1.43211 97 1.46967 97 1.50675C97 1.50678 97 1.5068 97 1.50682C97 1.55299 96.9278 1.59839 96.7982 1.60422C96.1693 1.63253 95.2292 1.70724 94.1188 1.87467C92.0482 2.18685 91.822 1.84187 89.026 2.00229C86.2301 2.16271 84.5503 2.48342 81.2605 2.27603C77.9708 2.06866 77.2152 2.93649 72.5714 2.44467C67.9278 1.95289 67.439 2.86048 62.8115 2.98117C58.1838 3.10185 52.3424 2.60109 49.5528 2.64261C46.7633 2.68414 43.0166 2.78986 39.062 2.67008C35.1074 2.55031 30.2256 2.85266 25.8604 2.63895C21.4952 2.42525 15.3238 2.15533 12.4726 1.97446C9.62162 1.7936 8.9267 1.75281 6.18245 1.86332C4.60503 1.92685 2.43197 1.86697 0.596446 1.63334C-0.327309 1.51576 -0.117986 1.35205 0.811805 1.27372C2.17146 1.15918 3.28759 1.2357 3.98816 1.03111C5.38805 0.622214 5.98302 0.465357 7.75028 0.703347C9.51745 0.941308 10.3501 0.400502 11.3803 0.462746C12.4105 0.525022 12.3935 0.844013 17.6316 0.598244C22.8698 0.352466 25.7413 0.289754 27.725 0.23075C29.7087 0.171747 33.8507 0.448598 37.0835 0.348669C40.3164 0.248748 46.8887 0.340326 49.538 0.176732C52.1873 0.0131517 52.1928 0.3702 54.3337 0.569676Z" fill="#E69900"/>
</svg>
