<svg width="3" height="60" viewBox="0 0 3 60" fill="none" xmlns="http://www.w3.org/2000/svg">
<path d="M2.43032 33.6084C2.23084 34.9328 3.11249 35.9753 2.98788 37.5895C2.86326 39.2036 2.39559 39.4454 2.50082 41.294C2.60602 43.1425 2.28615 44.9921 2.47829 45.8152C2.67049 46.6382 2.08941 46.7251 2.21847 47.8939C2.34751 49.0627 2.27166 49.771 2.08279 50.7932C1.89391 51.8154 1.73266 54.9559 1.96468 56.0979C2.19671 57.2398 1.79412 58.5423 1.69863 59.3256C1.66889 59.5696 1.62819 59.7616 1.58584 59.9088C1.56788 59.9712 1.53032 60 1.49324 60C1.49322 60 1.49319 60 1.49317 60C1.447 60 1.40161 59.9553 1.39578 59.8752C1.36746 59.4861 1.29275 58.9047 1.12533 58.2178C0.813143 56.9371 1.15812 56.7971 0.997705 55.0676C0.837287 53.3382 0.516576 52.2991 0.723962 50.2642C0.931331 48.2294 0.0635039 47.762 0.555322 44.8895C1.0471 42.0172 0.139511 41.7149 0.0188224 38.8524C-0.101858 35.99 0.398907 32.3767 0.357384 30.6512C0.315859 28.9257 0.210139 26.6082 0.329918 24.1621C0.449692 21.7159 0.147338 18.6963 0.361045 15.9961C0.57475 13.296 0.844667 9.47863 1.02553 7.71503C1.2064 5.95151 1.24719 5.52167 1.13668 3.8242C1.07315 2.84847 1.13303 1.50431 1.36666 0.368936C1.48424 -0.202459 1.64795 -0.0729807 1.72628 0.502147C1.84082 1.34317 1.7643 2.03356 1.96889 2.4669C2.37779 3.33281 2.53464 3.70084 2.29665 4.79399C2.05869 5.88708 2.5995 6.40215 2.53725 7.03936C2.47498 7.67659 2.15599 7.66611 2.40176 10.9062C2.64753 14.1463 2.71024 15.9225 2.76925 17.1495C2.82825 18.3765 2.5514 20.9385 2.65133 22.9382C2.75125 24.938 2.65967 29.0033 2.82326 30.6421C2.98685 32.2808 2.6298 32.2842 2.43032 33.6084Z" fill="#F1E5CF"/>
</svg>
