<svg width="381" height="302" viewBox="0 0 381 302" fill="none" xmlns="http://www.w3.org/2000/svg">
<path d="M1.38348 64.5784C2.58348 66.9784 1.88348 68.9117 1.38348 69.5784C1.05013 71.4116 0.583435 75.1781 1.38348 75.5781C2.18352 75.9781 2.38346 80.0781 2.38342 82.0781C2.55009 83.2448 2.58342 85.9781 1.38342 87.5781C0.183424 89.1781 0.883424 90.5781 1.38342 91.0781C1.88342 91.4115 2.68342 92.5781 1.88342 94.5781C1.08342 96.5781 1.55009 98.4115 1.88342 99.0781C2.21676 101.578 2.68342 106.878 1.88342 108.078C1.08342 109.278 1.55009 111.578 1.88342 112.578C2.55009 113.411 3.58342 115.778 2.38342 118.578C1.18342 121.378 1.55009 123.078 1.88342 123.578C2.38342 124.245 3.08342 126.178 1.88342 128.578C0.683424 130.978 1.38342 133.578 1.88342 134.578C2.05009 136.745 2.18342 141.578 1.38342 143.578C0.583424 145.578 1.38342 147.411 1.88342 148.078C1.38342 149.245 0.583424 151.978 1.38342 153.578C2.18342 155.178 2.38342 156.911 2.38342 157.578C2.05009 159.745 1.58342 164.778 2.38342 167.578C3.18342 170.378 2.05009 175.078 1.38342 177.078C0.883424 180.078 0.183424 186.478 1.38342 188.078C2.58342 189.678 2.55009 195.411 2.38342 198.078C1.71676 199.745 0.783424 203.478 2.38342 205.078C3.98342 206.678 3.05009 210.411 2.38342 212.078C2.38342 213.578 2.18343 217.478 1.38344 221.078C0.58346 224.678 1.05012 226.245 1.38344 226.578C1.88344 227.078 2.68342 228.478 1.88342 230.078C1.08342 231.678 1.21677 233.745 1.38344 234.578C2.05011 235.245 2.98344 237.378 1.38344 240.578C-0.216556 243.778 0.716777 247.911 1.38344 249.578C2.21678 251.745 3.58344 256.278 2.38344 257.078C1.18344 257.878 1.21678 262.411 1.38344 264.578C1.21678 265.411 0.983444 267.678 1.38344 270.078C1.78344 272.478 1.55011 275.078 1.38344 276.078C1.88344 277.578 2.68344 281.578 1.88344 285.578C1.08344 289.578 2.55011 291.911 3.38344 292.578C4.21678 292.911 6.38344 294.078 8.38344 296.078C10.3834 298.078 13.8834 299.578 15.3834 300.078C17.3834 299.745 21.4834 299.178 21.8834 299.578C22.2834 299.978 27.0501 299.745 29.3834 299.578C30.2168 299.411 32.4834 299.178 34.8834 299.578C37.2834 299.978 38.8834 299.745 39.3834 299.578C41.0501 299.245 44.6834 298.778 45.8834 299.578C47.0834 300.378 49.3834 299.911 50.3834 299.578C51.8834 300.078 55.2834 300.878 56.8834 300.078C58.4834 299.278 60.8834 299.078 61.8834 299.078C64.0501 299.411 68.7834 299.878 70.3834 299.078C71.9834 298.278 75.7168 299.411 77.3834 300.078C78.2168 300.411 80.3834 300.878 82.3834 300.078C84.3834 299.278 87.8834 299.078 89.3834 299.078C91.7168 299.578 96.7834 300.478 98.3834 300.078C99.9834 299.678 103.383 299.578 104.883 299.578C105.717 299.578 107.683 299.678 108.883 300.078C110.083 300.478 111.383 299.911 111.883 299.578C113.05 300.078 115.583 300.978 116.383 300.578C117.183 300.178 119.383 299.745 120.383 299.578C121.383 299.745 123.883 299.978 125.883 299.578C127.883 299.178 129.383 299.411 129.883 299.578C131.217 300.078 134.083 300.878 134.883 300.078C135.683 299.278 138.883 299.411 140.383 299.578C141.717 300.078 144.683 300.878 145.883 300.078C147.083 299.278 149.383 299.078 150.383 299.078C151.55 299.911 154.183 301.378 155.383 300.578C156.583 299.778 158.217 299.578 158.883 299.578C159.217 299.745 160.183 299.978 161.383 299.578C162.583 299.178 163.883 299.411 164.383 299.578C166.05 300.245 169.783 301.278 171.383 300.078C172.983 298.878 176.717 298.911 178.383 299.078C179.383 299.411 181.883 299.878 183.883 299.078C185.883 298.278 188.383 299.078 189.383 299.578C191.05 300.578 195.383 302.178 199.383 300.578C203.383 298.978 206.383 298.911 207.383 299.078C208.717 299.578 212.383 300.378 216.383 299.578C220.383 298.778 223.383 299.245 224.383 299.578C226.717 300.578 232.383 302.178 236.383 300.578C240.383 298.978 243.717 299.578 244.883 300.078C245.717 300.578 248.483 301.278 252.883 300.078C257.283 298.878 260.383 299.578 261.383 300.078C264.383 300.745 270.983 301.778 273.383 300.578C275.783 299.378 279.383 299.411 280.883 299.578C282.05 300.411 285.083 301.678 287.883 300.078C290.683 298.478 292.383 299.078 292.883 299.578C293.883 300.411 296.583 301.678 299.383 300.078C302.183 298.478 304.217 299.078 304.883 299.578C310.083 301.978 312.383 300.911 312.883 300.078C313.55 299.411 315.583 298.378 318.383 299.578C321.183 300.778 323.55 300.411 324.383 300.078C325.883 299.411 329.083 298.278 329.883 299.078C330.683 299.878 332.55 300.078 333.383 300.078C333.883 299.911 335.783 299.678 339.383 300.078C342.983 300.478 345.217 299.578 345.883 299.078C346.55 298.745 348.883 298.378 352.883 299.578C356.883 300.778 359.883 300.078 360.883 299.578H365.883C368.283 299.578 370.217 297.578 370.883 296.578C378.483 291.378 379.717 286.411 379.383 284.578C378.883 283.411 377.983 280.878 378.383 280.078C378.883 279.078 378.883 276.078 378.883 274.078V267.078C378.55 265.245 377.983 261.178 378.383 259.578C378.783 257.978 378.55 253.911 378.383 252.078C378.217 250.745 378.083 247.478 378.883 245.078C379.683 242.678 379.55 240.411 379.383 239.578C379.383 239.078 379.083 236.678 377.883 231.078C376.683 225.478 377.717 223.078 378.383 222.578C379.55 221.578 381.483 218.778 379.883 215.578C378.283 212.378 377.883 209.245 377.883 208.078C378.717 204.411 380.183 196.778 379.383 195.578C378.383 194.078 379.383 190.578 379.383 189.078C379.383 187.878 379.05 185.911 378.883 185.078V175.578C378.883 172.378 379.217 171.245 379.383 171.078C380.05 169.411 380.983 165.578 379.383 163.578C377.783 161.578 378.383 158.078 378.883 156.578C379.717 154.911 380.983 151.078 379.383 149.078C377.783 147.078 378.383 143.245 378.883 141.578C379.383 140.411 380.183 137.378 379.383 134.578C378.583 131.778 378.383 127.745 378.383 126.078C379.05 124.245 380.083 120.278 378.883 119.078C377.683 117.878 378.383 113.578 378.883 111.578C379.217 109.078 379.683 103.878 378.883 103.078C378.083 102.278 378.55 98.4115 378.883 96.5781C379.05 95.0781 379.283 91.6781 378.883 90.0781C378.483 88.4781 378.717 86.7448 378.883 86.0781C379.05 84.9115 379.383 82.0781 379.383 80.0781C379.383 78.0781 378.717 75.9115 378.383 75.0781C378.383 73.5781 378.483 70.0781 378.883 68.0781C379.283 66.0781 378.717 63.2448 378.383 62.0781C378.717 61.0781 379.283 58.5781 378.883 56.5781C378.483 54.5781 378.717 51.7448 378.883 50.5781C379.217 48.4115 379.683 43.7781 378.883 42.5781C378.083 41.3781 378.883 39.0781 379.383 38.0781C379.883 36.2448 380.583 32.1781 379.383 30.5781C378.183 28.9781 378.883 26.2448 379.383 25.0781C379.05 24.2448 378.583 21.8781 379.383 19.0781C380.183 16.2781 379.05 14.2448 378.383 13.5781C377.383 12.2448 375.283 9.17813 374.883 7.57812C374.383 5.57812 369.883 2.07812 367.883 2.07812C366.283 2.07812 362.217 1.74479 360.383 1.57812C355.583 0.378125 351.717 1.41146 350.383 2.07812C349.217 2.57812 346.183 3.27813 343.383 2.07812C340.583 0.878125 338.217 1.24479 337.383 1.57812C335.55 2.74479 331.383 4.57812 329.383 2.57812C327.383 0.578125 322.55 0.744792 320.383 1.07812C319.383 1.41146 317.183 1.97812 316.383 1.57812C315.583 1.17813 311.383 1.07812 309.383 1.07812C307.217 1.41146 302.683 1.97812 301.883 1.57812C301.083 1.17813 298.55 1.41146 297.383 1.57812C295.717 2.07812 291.583 2.77813 288.383 1.57812C285.183 0.378125 281.05 1.07812 279.383 1.57812C278.717 2.07812 276.183 2.77813 271.383 1.57812C266.583 0.378125 264.05 1.07812 263.383 1.57812C261.55 2.24479 256.983 3.27813 253.383 2.07812C249.783 0.878125 247.55 0.911458 246.883 1.07812C245.05 1.41146 240.983 2.07812 239.383 2.07812C237.383 2.07812 236.383 2.07812 233.383 1.07812C230.983 0.278125 224.383 1.07812 221.383 1.57812C219.717 1.41146 215.883 1.07812 213.883 1.07812C211.883 1.07812 210.717 1.74479 210.383 2.07812C209.217 1.74479 206.483 1.17813 204.883 1.57812C203.283 1.97812 199.883 2.41146 198.383 2.57812C197.383 2.24479 194.183 1.67811 189.383 2.07812C184.583 2.47814 181.05 1.91146 179.883 1.57812C178.883 1.91146 176.483 2.37812 174.883 1.57812C173.283 0.778125 172.217 1.24478 171.883 1.57811C170.717 2.24478 167.883 3.17812 165.883 1.57811C163.883 -0.0219005 161.05 0.911439 159.883 1.57811C157.717 1.41144 152.483 0.978111 148.883 0.578111C145.283 0.178111 138.383 1.41144 135.383 2.07811C133.883 2.41144 130.083 2.77811 126.883 1.57811C123.683 0.378111 119.217 1.41144 117.383 2.07811C113.883 2.57811 106.383 3.27811 104.383 2.07811C102.383 0.878111 97.5501 1.24478 95.3834 1.57811C94.3834 1.74484 91.2834 1.97827 86.8834 1.57811C82.4834 1.17795 79.0501 1.74471 77.8834 2.07811C76.0501 2.91148 71.0834 4.07825 65.8834 2.07831C60.6834 0.0783669 56.0501 0.578281 54.3834 1.07823C52.7168 1.91159 48.5834 3.27831 45.3834 2.07831C42.1834 0.878306 38.3834 0.911639 36.8834 1.07831C35.7168 1.57833 32.7834 2.37838 30.3834 1.57838C27.9834 0.778375 24.3834 1.24504 22.8834 1.57838C21.7168 1.74505 18.7834 1.97838 16.3834 1.57838C13.9834 1.17838 10.3834 2.74505 8.88344 3.57838C8.21678 4.07838 6.38344 5.77838 4.38344 8.57838C2.38344 11.3784 2.21678 14.4117 2.38344 15.5784C1.71678 17.0784 0.583451 20.4784 1.38348 22.0784C2.18351 23.6784 2.38347 27.4117 2.38344 29.0784C1.88344 30.4117 0.983451 33.3784 1.38348 34.5784C1.78351 35.7784 2.2168 38.4117 2.38344 39.5784C1.71678 40.745 0.683444 43.5784 1.88344 45.5784C3.08344 47.5784 1.71678 50.745 0.883444 52.0784C1.21679 53.0784 1.78348 55.7784 1.38348 58.5784C0.983479 61.3784 1.21681 63.7451 1.38348 64.5784Z" fill="#F1E5CF" stroke="#F1E5CF"/>
</svg>
